<svg xmlns="http://www.w3.org/2000/svg" viewBox="0 0 1200 750" width="1200" height="750" role="img"><rect width="1200" height="750" fill="#fbfaf7"/><circle cx="669" cy="442" r="209" fill="#475569" fill-opacity="0.10"/><circle cx="62" cy="90" r="2" fill="#111110" fill-opacity="0.05"/><circle cx="126" cy="90" r="2" fill="#111110" fill-opacity="0.05"/><circle cx="190" cy="90" r="2" fill="#111110" fill-opacity="0.05"/><circle cx="254" cy="90" r="2" fill="#111110" fill-opacity="0.05"/><circle cx="318" cy="90" r="2" fill="#111110" fill-opacity="0.05"/><circle cx="382" cy="90" r="2" fill="#111110" fill-opacity="0.05"/><circle cx="446" cy="90" r="2" fill="#111110" fill-opacity="0.05"/><circle cx="510" cy="90" r="2" fill="#111110" fill-opacity="0.05"/><circle cx="574" cy="90" r="2" fill="#111110" fill-opacity="0.05"/><circle cx="638" cy="90" r="2" fill="#111110" fill-opacity="0.05"/><circle cx="702" cy="90" r="2" fill="#111110" fill-opacity="0.05"/><circle cx="766" cy="90" r="2" fill="#111110" fill-opacity="0.05"/><circle cx="830" cy="90" r="2" fill="#111110" fill-opacity="0.05"/><circle cx="894" cy="90" r="2" fill="#111110" fill-opacity="0.05"/><circle cx="958" cy="90" r="2" fill="#111110" fill-opacity="0.05"/><circle cx="1022" cy="90" r="2" fill="#111110" fill-opacity="0.05"/><circle cx="1086" cy="90" r="2" fill="#111110" fill-opacity="0.05"/><circle cx="1150" cy="90" r="2" fill="#111110" fill-opacity="0.05"/><circle cx="62" cy="154" r="2" fill="#111110" fill-opacity="0.05"/><circle cx="126" cy="154" r="2" fill="#111110" fill-opacity="0.05"/><circle cx="190" cy="154" r="2" fill="#111110" fill-opacity="0.05"/><circle cx="254" cy="154" r="2" fill="#111110" fill-opacity="0.05"/><circle cx="318" cy="154" r="2" fill="#111110" fill-opacity="0.05"/><circle cx="382" cy="154" r="2" fill="#111110" fill-opacity="0.05"/><circle cx="446" cy="154" r="2" fill="#111110" fill-opacity="0.05"/><circle cx="510" cy="154" r="2" fill="#111110" fill-opacity="0.05"/><circle cx="574" cy="154" r="2" fill="#111110" fill-opacity="0.05"/><circle cx="638" cy="154" r="2" fill="#111110" fill-opacity="0.05"/><circle cx="702" cy="154" r="2" fill="#111110" fill-opacity="0.05"/><circle cx="766" cy="154" r="2" fill="#111110" fill-opacity="0.05"/><circle cx="830" cy="154" r="2" fill="#111110" fill-opacity="0.05"/><circle cx="894" cy="154" r="2" fill="#111110" fill-opacity="0.05"/><circle cx="958" cy="154" r="2" fill="#111110" fill-opacity="0.05"/><circle cx="1022" cy="154" r="2" fill="#111110" fill-opacity="0.05"/><circle cx="1086" cy="154" r="2" fill="#111110" fill-opacity="0.05"/><circle cx="1150" cy="154" r="2" fill="#111110" fill-opacity="0.05"/><circle cx="62" cy="218" r="2" fill="#111110" fill-opacity="0.05"/><circle cx="126" cy="218" r="2" fill="#111110" fill-opacity="0.05"/><circle cx="190" cy="218" r="2" fill="#111110" fill-opacity="0.05"/><circle cx="254" cy="218" r="2" fill="#111110" fill-opacity="0.05"/><circle cx="318" cy="218" r="2" fill="#111110" fill-opacity="0.05"/><circle cx="382" cy="218" r="2" fill="#111110" fill-opacity="0.05"/><circle cx="446" cy="218" r="2" fill="#111110" fill-opacity="0.05"/><circle cx="510" cy="218" r="2" fill="#111110" fill-opacity="0.05"/><circle cx="574" cy="218" r="2" fill="#111110" fill-opacity="0.05"/><circle cx="638" cy="218" r="2" fill="#111110" fill-opacity="0.05"/><circle cx="702" cy="218" r="2" fill="#111110" fill-opacity="0.05"/><circle cx="766" cy="218" r="2" fill="#111110" fill-opacity="0.05"/><circle cx="830" cy="218" r="2" fill="#111110" fill-opacity="0.05"/><circle cx="894" cy="218" r="2" fill="#111110" fill-opacity="0.05"/><circle cx="958" cy="218" r="2" fill="#111110" fill-opacity="0.05"/><circle cx="1022" cy="218" r="2" fill="#111110" fill-opacity="0.05"/><circle cx="1086" cy="218" r="2" fill="#111110" fill-opacity="0.05"/><circle cx="1150" cy="218" r="2" fill="#111110" fill-opacity="0.05"/><circle cx="62" cy="282" r="2" fill="#111110" fill-opacity="0.05"/><circle cx="126" cy="282" r="2" fill="#111110" fill-opacity="0.05"/><circle cx="190" cy="282" r="2" fill="#111110" fill-opacity="0.05"/><circle cx="254" cy="282" r="2" fill="#111110" fill-opacity="0.05"/><circle cx="318" cy="282" r="2" fill="#111110" fill-opacity="0.05"/><circle cx="382" cy="282" r="2" fill="#111110" fill-opacity="0.05"/><circle cx="446" cy="282" r="2" fill="#111110" fill-opacity="0.05"/><circle cx="510" cy="282" r="2" fill="#111110" fill-opacity="0.05"/><circle cx="574" cy="282" r="2" fill="#111110" fill-opacity="0.05"/><circle cx="638" cy="282" r="2" fill="#111110" fill-opacity="0.05"/><circle cx="702" cy="282" r="2" fill="#111110" fill-opacity="0.05"/><circle cx="766" cy="282" r="2" fill="#111110" fill-opacity="0.05"/><circle cx="830" cy="282" r="2" fill="#111110" fill-opacity="0.05"/><circle cx="894" cy="282" r="2" fill="#111110" fill-opacity="0.05"/><circle cx="958" cy="282" r="2" fill="#111110" fill-opacity="0.05"/><circle cx="1022" cy="282" r="2" fill="#111110" fill-opacity="0.05"/><circle cx="1086" cy="282" r="2" fill="#111110" fill-opacity="0.05"/><circle cx="1150" cy="282" r="2" fill="#111110" fill-opacity="0.05"/><circle cx="62" cy="346" r="2" fill="#111110" fill-opacity="0.05"/><circle cx="126" cy="346" r="2" fill="#111110" fill-opacity="0.05"/><circle cx="190" cy="346" r="2" fill="#111110" fill-opacity="0.05"/><circle cx="254" cy="346" r="2" fill="#111110" fill-opacity="0.05"/><circle cx="318" cy="346" r="2" fill="#111110" fill-opacity="0.05"/><circle cx="382" cy="346" r="2" fill="#111110" fill-opacity="0.05"/><circle cx="446" cy="346" r="2" fill="#111110" fill-opacity="0.05"/><circle cx="510" cy="346" r="2" fill="#111110" fill-opacity="0.05"/><circle cx="574" cy="346" r="2" fill="#111110" fill-opacity="0.05"/><circle cx="638" cy="346" r="2" fill="#111110" fill-opacity="0.05"/><circle cx="702" cy="346" r="2" fill="#111110" fill-opacity="0.05"/><circle cx="766" cy="346" r="2" fill="#111110" fill-opacity="0.05"/><circle cx="830" cy="346" r="2" fill="#111110" fill-opacity="0.05"/><circle cx="894" cy="346" r="2" fill="#111110" fill-opacity="0.05"/><circle cx="958" cy="346" r="2" fill="#111110" fill-opacity="0.05"/><circle cx="1022" cy="346" r="2" fill="#111110" fill-opacity="0.05"/><circle cx="1086" cy="346" r="2" fill="#111110" fill-opacity="0.05"/><circle cx="1150" cy="346" r="2" fill="#111110" fill-opacity="0.05"/><circle cx="62" cy="410" r="2" fill="#111110" fill-opacity="0.05"/><circle cx="126" cy="410" r="2" fill="#111110" fill-opacity="0.05"/><circle cx="190" cy="410" r="2" fill="#111110" fill-opacity="0.05"/><circle cx="254" cy="410" r="2" fill="#111110" fill-opacity="0.05"/><circle cx="318" cy="410" r="2" fill="#111110" fill-opacity="0.05"/><circle cx="382" cy="410" r="2" fill="#111110" fill-opacity="0.05"/><circle cx="446" cy="410" r="2" fill="#111110" fill-opacity="0.05"/><circle cx="510" cy="410" r="2" fill="#111110" fill-opacity="0.05"/><circle cx="574" cy="410" r="2" fill="#111110" fill-opacity="0.05"/><circle cx="638" cy="410" r="2" fill="#111110" fill-opacity="0.05"/><circle cx="702" cy="410" r="2" fill="#111110" fill-opacity="0.05"/><circle cx="766" cy="410" r="2" fill="#111110" fill-opacity="0.05"/><circle cx="830" cy="410" r="2" fill="#111110" fill-opacity="0.05"/><circle cx="894" cy="410" r="2" fill="#111110" fill-opacity="0.05"/><circle cx="958" cy="410" r="2" fill="#111110" fill-opacity="0.05"/><circle cx="1022" cy="410" r="2" fill="#111110" fill-opacity="0.05"/><circle cx="1086" cy="410" r="2" fill="#111110" fill-opacity="0.05"/><circle cx="1150" cy="410" r="2" fill="#111110" fill-opacity="0.05"/><circle cx="62" cy="474" r="2" fill="#111110" fill-opacity="0.05"/><circle cx="126" cy="474" r="2" fill="#111110" fill-opacity="0.05"/><circle cx="190" cy="474" r="2" fill="#111110" fill-opacity="0.05"/><circle cx="254" cy="474" r="2" fill="#111110" fill-opacity="0.05"/><circle cx="318" cy="474" r="2" fill="#111110" fill-opacity="0.05"/><circle cx="382" cy="474" r="2" fill="#111110" fill-opacity="0.05"/><circle cx="446" cy="474" r="2" fill="#111110" fill-opacity="0.05"/><circle cx="510" cy="474" r="2" fill="#111110" fill-opacity="0.05"/><circle cx="574" cy="474" r="2" fill="#111110" fill-opacity="0.05"/><circle cx="638" cy="474" r="2" fill="#111110" fill-opacity="0.05"/><circle cx="702" cy="474" r="2" fill="#111110" fill-opacity="0.05"/><circle cx="766" cy="474" r="2" fill="#111110" fill-opacity="0.05"/><circle cx="830" cy="474" r="2" fill="#111110" fill-opacity="0.05"/><circle cx="894" cy="474" r="2" fill="#111110" fill-opacity="0.05"/><circle cx="958" cy="474" r="2" fill="#111110" fill-opacity="0.05"/><circle cx="1022" cy="474" r="2" fill="#111110" fill-opacity="0.05"/><circle cx="1086" cy="474" r="2" fill="#111110" fill-opacity="0.05"/><circle cx="1150" cy="474" r="2" fill="#111110" fill-opacity="0.05"/><circle cx="62" cy="538" r="2" fill="#111110" fill-opacity="0.05"/><circle cx="126" cy="538" r="2" fill="#111110" fill-opacity="0.05"/><circle cx="190" cy="538" r="2" fill="#111110" fill-opacity="0.05"/><circle cx="254" cy="538" r="2" fill="#111110" fill-opacity="0.05"/><circle cx="318" cy="538" r="2" fill="#111110" fill-opacity="0.05"/><circle cx="382" cy="538" r="2" fill="#111110" fill-opacity="0.05"/><circle cx="446" cy="538" r="2" fill="#111110" fill-opacity="0.05"/><circle cx="510" cy="538" r="2" fill="#111110" fill-opacity="0.05"/><circle cx="574" cy="538" r="2" fill="#111110" fill-opacity="0.05"/><circle cx="638" cy="538" r="2" fill="#111110" fill-opacity="0.05"/><circle cx="702" cy="538" r="2" fill="#111110" fill-opacity="0.05"/><circle cx="766" cy="538" r="2" fill="#111110" fill-opacity="0.05"/><circle cx="830" cy="538" r="2" fill="#111110" fill-opacity="0.05"/><circle cx="894" cy="538" r="2" fill="#111110" fill-opacity="0.05"/><circle cx="958" cy="538" r="2" fill="#111110" fill-opacity="0.05"/><circle cx="1022" cy="538" r="2" fill="#111110" fill-opacity="0.05"/><circle cx="1086" cy="538" r="2" fill="#111110" fill-opacity="0.05"/><circle cx="1150" cy="538" r="2" fill="#111110" fill-opacity="0.05"/><circle cx="62" cy="602" r="2" fill="#111110" fill-opacity="0.05"/><circle cx="126" cy="602" r="2" fill="#111110" fill-opacity="0.05"/><circle cx="190" cy="602" r="2" fill="#111110" fill-opacity="0.05"/><circle cx="254" cy="602" r="2" fill="#111110" fill-opacity="0.05"/><circle cx="318" cy="602" r="2" fill="#111110" fill-opacity="0.05"/><circle cx="382" cy="602" r="2" fill="#111110" fill-opacity="0.05"/><circle cx="446" cy="602" r="2" fill="#111110" fill-opacity="0.05"/><circle cx="510" cy="602" r="2" fill="#111110" fill-opacity="0.05"/><circle cx="574" cy="602" r="2" fill="#111110" fill-opacity="0.05"/><circle cx="638" cy="602" r="2" fill="#111110" fill-opacity="0.05"/><circle cx="702" cy="602" r="2" fill="#111110" fill-opacity="0.05"/><circle cx="766" cy="602" r="2" fill="#111110" fill-opacity="0.05"/><circle cx="830" cy="602" r="2" fill="#111110" fill-opacity="0.05"/><circle cx="894" cy="602" r="2" fill="#111110" fill-opacity="0.05"/><circle cx="958" cy="602" r="2" fill="#111110" fill-opacity="0.05"/><circle cx="1022" cy="602" r="2" fill="#111110" fill-opacity="0.05"/><circle cx="1086" cy="602" r="2" fill="#111110" fill-opacity="0.05"/><circle cx="1150" cy="602" r="2" fill="#111110" fill-opacity="0.05"/><circle cx="62" cy="666" r="2" fill="#111110" fill-opacity="0.05"/><circle cx="126" cy="666" r="2" fill="#111110" fill-opacity="0.05"/><circle cx="190" cy="666" r="2" fill="#111110" fill-opacity="0.05"/><circle cx="254" cy="666" r="2" fill="#111110" fill-opacity="0.05"/><circle cx="318" cy="666" r="2" fill="#111110" fill-opacity="0.05"/><circle cx="382" cy="666" r="2" fill="#111110" fill-opacity="0.05"/><circle cx="446" cy="666" r="2" fill="#111110" fill-opacity="0.05"/><circle cx="510" cy="666" r="2" fill="#111110" fill-opacity="0.05"/><circle cx="574" cy="666" r="2" fill="#111110" fill-opacity="0.05"/><circle cx="638" cy="666" r="2" fill="#111110" fill-opacity="0.05"/><circle cx="702" cy="666" r="2" fill="#111110" fill-opacity="0.05"/><circle cx="766" cy="666" r="2" fill="#111110" fill-opacity="0.05"/><circle cx="830" cy="666" r="2" fill="#111110" fill-opacity="0.05"/><circle cx="894" cy="666" r="2" fill="#111110" fill-opacity="0.05"/><circle cx="958" cy="666" r="2" fill="#111110" fill-opacity="0.05"/><circle cx="1022" cy="666" r="2" fill="#111110" fill-opacity="0.05"/><circle cx="1086" cy="666" r="2" fill="#111110" fill-opacity="0.05"/><circle cx="1150" cy="666" r="2" fill="#111110" fill-opacity="0.05"/><circle cx="62" cy="730" r="2" fill="#111110" fill-opacity="0.05"/><circle cx="126" cy="730" r="2" fill="#111110" fill-opacity="0.05"/><circle cx="190" cy="730" r="2" fill="#111110" fill-opacity="0.05"/><circle cx="254" cy="730" r="2" fill="#111110" fill-opacity="0.05"/><circle cx="318" cy="730" r="2" fill="#111110" fill-opacity="0.05"/><circle cx="382" cy="730" r="2" fill="#111110" fill-opacity="0.05"/><circle cx="446" cy="730" r="2" fill="#111110" fill-opacity="0.05"/><circle cx="510" cy="730" r="2" fill="#111110" fill-opacity="0.05"/><circle cx="574" cy="730" r="2" fill="#111110" fill-opacity="0.05"/><circle cx="638" cy="730" r="2" fill="#111110" fill-opacity="0.05"/><circle cx="702" cy="730" r="2" fill="#111110" fill-opacity="0.05"/><circle cx="766" cy="730" r="2" fill="#111110" fill-opacity="0.05"/><circle cx="830" cy="730" r="2" fill="#111110" fill-opacity="0.05"/><circle cx="894" cy="730" r="2" fill="#111110" fill-opacity="0.05"/><circle cx="958" cy="730" r="2" fill="#111110" fill-opacity="0.05"/><circle cx="1022" cy="730" r="2" fill="#111110" fill-opacity="0.05"/><circle cx="1086" cy="730" r="2" fill="#111110" fill-opacity="0.05"/><circle cx="1150" cy="730" r="2" fill="#111110" fill-opacity="0.05"/><circle cx="669" cy="442" r="94" fill="none" stroke="#475569" stroke-width="2.5" stroke-opacity="0.60"/><circle cx="669" cy="442" r="136" fill="none" stroke="#475569" stroke-width="2.5" stroke-opacity="0.50"/><circle cx="669" cy="442" r="178" fill="none" stroke="#475569" stroke-width="2.5" stroke-opacity="0.40"/><circle cx="669" cy="442" r="219" fill="none" stroke="#475569" stroke-width="2.5" stroke-opacity="0.30"/><circle cx="669" cy="442" r="9" fill="#475569"/></svg>