<svg xmlns="http://www.w3.org/2000/svg" viewBox="0 0 1200 750" width="1200" height="750" role="img"><rect width="1200" height="750" fill="#fbfaf7"/><circle cx="715" cy="447" r="213" fill="#db2777" fill-opacity="0.10"/><circle cx="74" cy="90" r="2" fill="#111110" fill-opacity="0.05"/><circle cx="138" cy="90" r="2" fill="#111110" fill-opacity="0.05"/><circle cx="202" cy="90" r="2" fill="#111110" fill-opacity="0.05"/><circle cx="266" cy="90" r="2" fill="#111110" fill-opacity="0.05"/><circle cx="330" cy="90" r="2" fill="#111110" fill-opacity="0.05"/><circle cx="394" cy="90" r="2" fill="#111110" fill-opacity="0.05"/><circle cx="458" cy="90" r="2" fill="#111110" fill-opacity="0.05"/><circle cx="522" cy="90" r="2" fill="#111110" fill-opacity="0.05"/><circle cx="586" cy="90" r="2" fill="#111110" fill-opacity="0.05"/><circle cx="650" cy="90" r="2" fill="#111110" fill-opacity="0.05"/><circle cx="714" cy="90" r="2" fill="#111110" fill-opacity="0.05"/><circle cx="778" cy="90" r="2" fill="#111110" fill-opacity="0.05"/><circle cx="842" cy="90" r="2" fill="#111110" fill-opacity="0.05"/><circle cx="906" cy="90" r="2" fill="#111110" fill-opacity="0.05"/><circle cx="970" cy="90" r="2" fill="#111110" fill-opacity="0.05"/><circle cx="1034" cy="90" r="2" fill="#111110" fill-opacity="0.05"/><circle cx="1098" cy="90" r="2" fill="#111110" fill-opacity="0.05"/><circle cx="1162" cy="90" r="2" fill="#111110" fill-opacity="0.05"/><circle cx="74" cy="154" r="2" fill="#111110" fill-opacity="0.05"/><circle cx="138" cy="154" r="2" fill="#111110" fill-opacity="0.05"/><circle cx="202" cy="154" r="2" fill="#111110" fill-opacity="0.05"/><circle cx="266" cy="154" r="2" fill="#111110" fill-opacity="0.05"/><circle cx="330" cy="154" r="2" fill="#111110" fill-opacity="0.05"/><circle cx="394" cy="154" r="2" fill="#111110" fill-opacity="0.05"/><circle cx="458" cy="154" r="2" fill="#111110" fill-opacity="0.05"/><circle cx="522" cy="154" r="2" fill="#111110" fill-opacity="0.05"/><circle cx="586" cy="154" r="2" fill="#111110" fill-opacity="0.05"/><circle cx="650" cy="154" r="2" fill="#111110" fill-opacity="0.05"/><circle cx="714" cy="154" r="2" fill="#111110" fill-opacity="0.05"/><circle cx="778" cy="154" r="2" fill="#111110" fill-opacity="0.05"/><circle cx="842" cy="154" r="2" fill="#111110" fill-opacity="0.05"/><circle cx="906" cy="154" r="2" fill="#111110" fill-opacity="0.05"/><circle cx="970" cy="154" r="2" fill="#111110" fill-opacity="0.05"/><circle cx="1034" cy="154" r="2" fill="#111110" fill-opacity="0.05"/><circle cx="1098" cy="154" r="2" fill="#111110" fill-opacity="0.05"/><circle cx="1162" cy="154" r="2" fill="#111110" fill-opacity="0.05"/><circle cx="74" cy="218" r="2" fill="#111110" fill-opacity="0.05"/><circle cx="138" cy="218" r="2" fill="#111110" fill-opacity="0.05"/><circle cx="202" cy="218" r="2" fill="#111110" fill-opacity="0.05"/><circle cx="266" cy="218" r="2" fill="#111110" fill-opacity="0.05"/><circle cx="330" cy="218" r="2" fill="#111110" fill-opacity="0.05"/><circle cx="394" cy="218" r="2" fill="#111110" fill-opacity="0.05"/><circle cx="458" cy="218" r="2" fill="#111110" fill-opacity="0.05"/><circle cx="522" cy="218" r="2" fill="#111110" fill-opacity="0.05"/><circle cx="586" cy="218" r="2" fill="#111110" fill-opacity="0.05"/><circle cx="650" cy="218" r="2" fill="#111110" fill-opacity="0.05"/><circle cx="714" cy="218" r="2" fill="#111110" fill-opacity="0.05"/><circle cx="778" cy="218" r="2" fill="#111110" fill-opacity="0.05"/><circle cx="842" cy="218" r="2" fill="#111110" fill-opacity="0.05"/><circle cx="906" cy="218" r="2" fill="#111110" fill-opacity="0.05"/><circle cx="970" cy="218" r="2" fill="#111110" fill-opacity="0.05"/><circle cx="1034" cy="218" r="2" fill="#111110" fill-opacity="0.05"/><circle cx="1098" cy="218" r="2" fill="#111110" fill-opacity="0.05"/><circle cx="1162" cy="218" r="2" fill="#111110" fill-opacity="0.05"/><circle cx="74" cy="282" r="2" fill="#111110" fill-opacity="0.05"/><circle cx="138" cy="282" r="2" fill="#111110" fill-opacity="0.05"/><circle cx="202" cy="282" r="2" fill="#111110" fill-opacity="0.05"/><circle cx="266" cy="282" r="2" fill="#111110" fill-opacity="0.05"/><circle cx="330" cy="282" r="2" fill="#111110" fill-opacity="0.05"/><circle cx="394" cy="282" r="2" fill="#111110" fill-opacity="0.05"/><circle cx="458" cy="282" r="2" fill="#111110" fill-opacity="0.05"/><circle cx="522" cy="282" r="2" fill="#111110" fill-opacity="0.05"/><circle cx="586" cy="282" r="2" fill="#111110" fill-opacity="0.05"/><circle cx="650" cy="282" r="2" fill="#111110" fill-opacity="0.05"/><circle cx="714" cy="282" r="2" fill="#111110" fill-opacity="0.05"/><circle cx="778" cy="282" r="2" fill="#111110" fill-opacity="0.05"/><circle cx="842" cy="282" r="2" fill="#111110" fill-opacity="0.05"/><circle cx="906" cy="282" r="2" fill="#111110" fill-opacity="0.05"/><circle cx="970" cy="282" r="2" fill="#111110" fill-opacity="0.05"/><circle cx="1034" cy="282" r="2" fill="#111110" fill-opacity="0.05"/><circle cx="1098" cy="282" r="2" fill="#111110" fill-opacity="0.05"/><circle cx="1162" cy="282" r="2" fill="#111110" fill-opacity="0.05"/><circle cx="74" cy="346" r="2" fill="#111110" fill-opacity="0.05"/><circle cx="138" cy="346" r="2" fill="#111110" fill-opacity="0.05"/><circle cx="202" cy="346" r="2" fill="#111110" fill-opacity="0.05"/><circle cx="266" cy="346" r="2" fill="#111110" fill-opacity="0.05"/><circle cx="330" cy="346" r="2" fill="#111110" fill-opacity="0.05"/><circle cx="394" cy="346" r="2" fill="#111110" fill-opacity="0.05"/><circle cx="458" cy="346" r="2" fill="#111110" fill-opacity="0.05"/><circle cx="522" cy="346" r="2" fill="#111110" fill-opacity="0.05"/><circle cx="586" cy="346" r="2" fill="#111110" fill-opacity="0.05"/><circle cx="650" cy="346" r="2" fill="#111110" fill-opacity="0.05"/><circle cx="714" cy="346" r="2" fill="#111110" fill-opacity="0.05"/><circle cx="778" cy="346" r="2" fill="#111110" fill-opacity="0.05"/><circle cx="842" cy="346" r="2" fill="#111110" fill-opacity="0.05"/><circle cx="906" cy="346" r="2" fill="#111110" fill-opacity="0.05"/><circle cx="970" cy="346" r="2" fill="#111110" fill-opacity="0.05"/><circle cx="1034" cy="346" r="2" fill="#111110" fill-opacity="0.05"/><circle cx="1098" cy="346" r="2" fill="#111110" fill-opacity="0.05"/><circle cx="1162" cy="346" r="2" fill="#111110" fill-opacity="0.05"/><circle cx="74" cy="410" r="2" fill="#111110" fill-opacity="0.05"/><circle cx="138" cy="410" r="2" fill="#111110" fill-opacity="0.05"/><circle cx="202" cy="410" r="2" fill="#111110" fill-opacity="0.05"/><circle cx="266" cy="410" r="2" fill="#111110" fill-opacity="0.05"/><circle cx="330" cy="410" r="2" fill="#111110" fill-opacity="0.05"/><circle cx="394" cy="410" r="2" fill="#111110" fill-opacity="0.05"/><circle cx="458" cy="410" r="2" fill="#111110" fill-opacity="0.05"/><circle cx="522" cy="410" r="2" fill="#111110" fill-opacity="0.05"/><circle cx="586" cy="410" r="2" fill="#111110" fill-opacity="0.05"/><circle cx="650" cy="410" r="2" fill="#111110" fill-opacity="0.05"/><circle cx="714" cy="410" r="2" fill="#111110" fill-opacity="0.05"/><circle cx="778" cy="410" r="2" fill="#111110" fill-opacity="0.05"/><circle cx="842" cy="410" r="2" fill="#111110" fill-opacity="0.05"/><circle cx="906" cy="410" r="2" fill="#111110" fill-opacity="0.05"/><circle cx="970" cy="410" r="2" fill="#111110" fill-opacity="0.05"/><circle cx="1034" cy="410" r="2" fill="#111110" fill-opacity="0.05"/><circle cx="1098" cy="410" r="2" fill="#111110" fill-opacity="0.05"/><circle cx="1162" cy="410" r="2" fill="#111110" fill-opacity="0.05"/><circle cx="74" cy="474" r="2" fill="#111110" fill-opacity="0.05"/><circle cx="138" cy="474" r="2" fill="#111110" fill-opacity="0.05"/><circle cx="202" cy="474" r="2" fill="#111110" fill-opacity="0.05"/><circle cx="266" cy="474" r="2" fill="#111110" fill-opacity="0.05"/><circle cx="330" cy="474" r="2" fill="#111110" fill-opacity="0.05"/><circle cx="394" cy="474" r="2" fill="#111110" fill-opacity="0.05"/><circle cx="458" cy="474" r="2" fill="#111110" fill-opacity="0.05"/><circle cx="522" cy="474" r="2" fill="#111110" fill-opacity="0.05"/><circle cx="586" cy="474" r="2" fill="#111110" fill-opacity="0.05"/><circle cx="650" cy="474" r="2" fill="#111110" fill-opacity="0.05"/><circle cx="714" cy="474" r="2" fill="#111110" fill-opacity="0.05"/><circle cx="778" cy="474" r="2" fill="#111110" fill-opacity="0.05"/><circle cx="842" cy="474" r="2" fill="#111110" fill-opacity="0.05"/><circle cx="906" cy="474" r="2" fill="#111110" fill-opacity="0.05"/><circle cx="970" cy="474" r="2" fill="#111110" fill-opacity="0.05"/><circle cx="1034" cy="474" r="2" fill="#111110" fill-opacity="0.05"/><circle cx="1098" cy="474" r="2" fill="#111110" fill-opacity="0.05"/><circle cx="1162" cy="474" r="2" fill="#111110" fill-opacity="0.05"/><circle cx="74" cy="538" r="2" fill="#111110" fill-opacity="0.05"/><circle cx="138" cy="538" r="2" fill="#111110" fill-opacity="0.05"/><circle cx="202" cy="538" r="2" fill="#111110" fill-opacity="0.05"/><circle cx="266" cy="538" r="2" fill="#111110" fill-opacity="0.05"/><circle cx="330" cy="538" r="2" fill="#111110" fill-opacity="0.05"/><circle cx="394" cy="538" r="2" fill="#111110" fill-opacity="0.05"/><circle cx="458" cy="538" r="2" fill="#111110" fill-opacity="0.05"/><circle cx="522" cy="538" r="2" fill="#111110" fill-opacity="0.05"/><circle cx="586" cy="538" r="2" fill="#111110" fill-opacity="0.05"/><circle cx="650" cy="538" r="2" fill="#111110" fill-opacity="0.05"/><circle cx="714" cy="538" r="2" fill="#111110" fill-opacity="0.05"/><circle cx="778" cy="538" r="2" fill="#111110" fill-opacity="0.05"/><circle cx="842" cy="538" r="2" fill="#111110" fill-opacity="0.05"/><circle cx="906" cy="538" r="2" fill="#111110" fill-opacity="0.05"/><circle cx="970" cy="538" r="2" fill="#111110" fill-opacity="0.05"/><circle cx="1034" cy="538" r="2" fill="#111110" fill-opacity="0.05"/><circle cx="1098" cy="538" r="2" fill="#111110" fill-opacity="0.05"/><circle cx="1162" cy="538" r="2" fill="#111110" fill-opacity="0.05"/><circle cx="74" cy="602" r="2" fill="#111110" fill-opacity="0.05"/><circle cx="138" cy="602" r="2" fill="#111110" fill-opacity="0.05"/><circle cx="202" cy="602" r="2" fill="#111110" fill-opacity="0.05"/><circle cx="266" cy="602" r="2" fill="#111110" fill-opacity="0.05"/><circle cx="330" cy="602" r="2" fill="#111110" fill-opacity="0.05"/><circle cx="394" cy="602" r="2" fill="#111110" fill-opacity="0.05"/><circle cx="458" cy="602" r="2" fill="#111110" fill-opacity="0.05"/><circle cx="522" cy="602" r="2" fill="#111110" fill-opacity="0.05"/><circle cx="586" cy="602" r="2" fill="#111110" fill-opacity="0.05"/><circle cx="650" cy="602" r="2" fill="#111110" fill-opacity="0.05"/><circle cx="714" cy="602" r="2" fill="#111110" fill-opacity="0.05"/><circle cx="778" cy="602" r="2" fill="#111110" fill-opacity="0.05"/><circle cx="842" cy="602" r="2" fill="#111110" fill-opacity="0.05"/><circle cx="906" cy="602" r="2" fill="#111110" fill-opacity="0.05"/><circle cx="970" cy="602" r="2" fill="#111110" fill-opacity="0.05"/><circle cx="1034" cy="602" r="2" fill="#111110" fill-opacity="0.05"/><circle cx="1098" cy="602" r="2" fill="#111110" fill-opacity="0.05"/><circle cx="1162" cy="602" r="2" fill="#111110" fill-opacity="0.05"/><circle cx="74" cy="666" r="2" fill="#111110" fill-opacity="0.05"/><circle cx="138" cy="666" r="2" fill="#111110" fill-opacity="0.05"/><circle cx="202" cy="666" r="2" fill="#111110" fill-opacity="0.05"/><circle cx="266" cy="666" r="2" fill="#111110" fill-opacity="0.05"/><circle cx="330" cy="666" r="2" fill="#111110" fill-opacity="0.05"/><circle cx="394" cy="666" r="2" fill="#111110" fill-opacity="0.05"/><circle cx="458" cy="666" r="2" fill="#111110" fill-opacity="0.05"/><circle cx="522" cy="666" r="2" fill="#111110" fill-opacity="0.05"/><circle cx="586" cy="666" r="2" fill="#111110" fill-opacity="0.05"/><circle cx="650" cy="666" r="2" fill="#111110" fill-opacity="0.05"/><circle cx="714" cy="666" r="2" fill="#111110" fill-opacity="0.05"/><circle cx="778" cy="666" r="2" fill="#111110" fill-opacity="0.05"/><circle cx="842" cy="666" r="2" fill="#111110" fill-opacity="0.05"/><circle cx="906" cy="666" r="2" fill="#111110" fill-opacity="0.05"/><circle cx="970" cy="666" r="2" fill="#111110" fill-opacity="0.05"/><circle cx="1034" cy="666" r="2" fill="#111110" fill-opacity="0.05"/><circle cx="1098" cy="666" r="2" fill="#111110" fill-opacity="0.05"/><circle cx="1162" cy="666" r="2" fill="#111110" fill-opacity="0.05"/><circle cx="74" cy="730" r="2" fill="#111110" fill-opacity="0.05"/><circle cx="138" cy="730" r="2" fill="#111110" fill-opacity="0.05"/><circle cx="202" cy="730" r="2" fill="#111110" fill-opacity="0.05"/><circle cx="266" cy="730" r="2" fill="#111110" fill-opacity="0.05"/><circle cx="330" cy="730" r="2" fill="#111110" fill-opacity="0.05"/><circle cx="394" cy="730" r="2" fill="#111110" fill-opacity="0.05"/><circle cx="458" cy="730" r="2" fill="#111110" fill-opacity="0.05"/><circle cx="522" cy="730" r="2" fill="#111110" fill-opacity="0.05"/><circle cx="586" cy="730" r="2" fill="#111110" fill-opacity="0.05"/><circle cx="650" cy="730" r="2" fill="#111110" fill-opacity="0.05"/><circle cx="714" cy="730" r="2" fill="#111110" fill-opacity="0.05"/><circle cx="778" cy="730" r="2" fill="#111110" fill-opacity="0.05"/><circle cx="842" cy="730" r="2" fill="#111110" fill-opacity="0.05"/><circle cx="906" cy="730" r="2" fill="#111110" fill-opacity="0.05"/><circle cx="970" cy="730" r="2" fill="#111110" fill-opacity="0.05"/><circle cx="1034" cy="730" r="2" fill="#111110" fill-opacity="0.05"/><circle cx="1098" cy="730" r="2" fill="#111110" fill-opacity="0.05"/><circle cx="1162" cy="730" r="2" fill="#111110" fill-opacity="0.05"/><line x1="481" y1="401" x2="950" y2="401" stroke="#111110" stroke-width="2" stroke-opacity="0.12" transform="rotate(-4 715 447)"/><line x1="481" y1="447" x2="950" y2="447" stroke="#111110" stroke-width="2" stroke-opacity="0.12" transform="rotate(-4 715 447)"/><line x1="481" y1="493" x2="950" y2="493" stroke="#111110" stroke-width="2" stroke-opacity="0.12" transform="rotate(-4 715 447)"/><circle cx="715" cy="447" r="117" fill="none" stroke="#db2777" stroke-width="3" stroke-opacity="0.7"/><circle cx="715" cy="447" r="9" fill="#db2777"/></svg>