<svg xmlns="http://www.w3.org/2000/svg" viewBox="0 0 1200 750" width="1200" height="750" role="img"><rect width="1200" height="750" fill="#fbfaf7"/><circle cx="423" cy="269" r="225" fill="#7c3aed" fill-opacity="0.10"/><circle cx="80" cy="90" r="2" fill="#111110" fill-opacity="0.05"/><circle cx="144" cy="90" r="2" fill="#111110" fill-opacity="0.05"/><circle cx="208" cy="90" r="2" fill="#111110" fill-opacity="0.05"/><circle cx="272" cy="90" r="2" fill="#111110" fill-opacity="0.05"/><circle cx="336" cy="90" r="2" fill="#111110" fill-opacity="0.05"/><circle cx="400" cy="90" r="2" fill="#111110" fill-opacity="0.05"/><circle cx="464" cy="90" r="2" fill="#111110" fill-opacity="0.05"/><circle cx="528" cy="90" r="2" fill="#111110" fill-opacity="0.05"/><circle cx="592" cy="90" r="2" fill="#111110" fill-opacity="0.05"/><circle cx="656" cy="90" r="2" fill="#111110" fill-opacity="0.05"/><circle cx="720" cy="90" r="2" fill="#111110" fill-opacity="0.05"/><circle cx="784" cy="90" r="2" fill="#111110" fill-opacity="0.05"/><circle cx="848" cy="90" r="2" fill="#111110" fill-opacity="0.05"/><circle cx="912" cy="90" r="2" fill="#111110" fill-opacity="0.05"/><circle cx="976" cy="90" r="2" fill="#111110" fill-opacity="0.05"/><circle cx="1040" cy="90" r="2" fill="#111110" fill-opacity="0.05"/><circle cx="1104" cy="90" r="2" fill="#111110" fill-opacity="0.05"/><circle cx="1168" cy="90" r="2" fill="#111110" fill-opacity="0.05"/><circle cx="80" cy="154" r="2" fill="#111110" fill-opacity="0.05"/><circle cx="144" cy="154" r="2" fill="#111110" fill-opacity="0.05"/><circle cx="208" cy="154" r="2" fill="#111110" fill-opacity="0.05"/><circle cx="272" cy="154" r="2" fill="#111110" fill-opacity="0.05"/><circle cx="336" cy="154" r="2" fill="#111110" fill-opacity="0.05"/><circle cx="400" cy="154" r="2" fill="#111110" fill-opacity="0.05"/><circle cx="464" cy="154" r="2" fill="#111110" fill-opacity="0.05"/><circle cx="528" cy="154" r="2" fill="#111110" fill-opacity="0.05"/><circle cx="592" cy="154" r="2" fill="#111110" fill-opacity="0.05"/><circle cx="656" cy="154" r="2" fill="#111110" fill-opacity="0.05"/><circle cx="720" cy="154" r="2" fill="#111110" fill-opacity="0.05"/><circle cx="784" cy="154" r="2" fill="#111110" fill-opacity="0.05"/><circle cx="848" cy="154" r="2" fill="#111110" fill-opacity="0.05"/><circle cx="912" cy="154" r="2" fill="#111110" fill-opacity="0.05"/><circle cx="976" cy="154" r="2" fill="#111110" fill-opacity="0.05"/><circle cx="1040" cy="154" r="2" fill="#111110" fill-opacity="0.05"/><circle cx="1104" cy="154" r="2" fill="#111110" fill-opacity="0.05"/><circle cx="1168" cy="154" r="2" fill="#111110" fill-opacity="0.05"/><circle cx="80" cy="218" r="2" fill="#111110" fill-opacity="0.05"/><circle cx="144" cy="218" r="2" fill="#111110" fill-opacity="0.05"/><circle cx="208" cy="218" r="2" fill="#111110" fill-opacity="0.05"/><circle cx="272" cy="218" r="2" fill="#111110" fill-opacity="0.05"/><circle cx="336" cy="218" r="2" fill="#111110" fill-opacity="0.05"/><circle cx="400" cy="218" r="2" fill="#111110" fill-opacity="0.05"/><circle cx="464" cy="218" r="2" fill="#111110" fill-opacity="0.05"/><circle cx="528" cy="218" r="2" fill="#111110" fill-opacity="0.05"/><circle cx="592" cy="218" r="2" fill="#111110" fill-opacity="0.05"/><circle cx="656" cy="218" r="2" fill="#111110" fill-opacity="0.05"/><circle cx="720" cy="218" r="2" fill="#111110" fill-opacity="0.05"/><circle cx="784" cy="218" r="2" fill="#111110" fill-opacity="0.05"/><circle cx="848" cy="218" r="2" fill="#111110" fill-opacity="0.05"/><circle cx="912" cy="218" r="2" fill="#111110" fill-opacity="0.05"/><circle cx="976" cy="218" r="2" fill="#111110" fill-opacity="0.05"/><circle cx="1040" cy="218" r="2" fill="#111110" fill-opacity="0.05"/><circle cx="1104" cy="218" r="2" fill="#111110" fill-opacity="0.05"/><circle cx="1168" cy="218" r="2" fill="#111110" fill-opacity="0.05"/><circle cx="80" cy="282" r="2" fill="#111110" fill-opacity="0.05"/><circle cx="144" cy="282" r="2" fill="#111110" fill-opacity="0.05"/><circle cx="208" cy="282" r="2" fill="#111110" fill-opacity="0.05"/><circle cx="272" cy="282" r="2" fill="#111110" fill-opacity="0.05"/><circle cx="336" cy="282" r="2" fill="#111110" fill-opacity="0.05"/><circle cx="400" cy="282" r="2" fill="#111110" fill-opacity="0.05"/><circle cx="464" cy="282" r="2" fill="#111110" fill-opacity="0.05"/><circle cx="528" cy="282" r="2" fill="#111110" fill-opacity="0.05"/><circle cx="592" cy="282" r="2" fill="#111110" fill-opacity="0.05"/><circle cx="656" cy="282" r="2" fill="#111110" fill-opacity="0.05"/><circle cx="720" cy="282" r="2" fill="#111110" fill-opacity="0.05"/><circle cx="784" cy="282" r="2" fill="#111110" fill-opacity="0.05"/><circle cx="848" cy="282" r="2" fill="#111110" fill-opacity="0.05"/><circle cx="912" cy="282" r="2" fill="#111110" fill-opacity="0.05"/><circle cx="976" cy="282" r="2" fill="#111110" fill-opacity="0.05"/><circle cx="1040" cy="282" r="2" fill="#111110" fill-opacity="0.05"/><circle cx="1104" cy="282" r="2" fill="#111110" fill-opacity="0.05"/><circle cx="1168" cy="282" r="2" fill="#111110" fill-opacity="0.05"/><circle cx="80" cy="346" r="2" fill="#111110" fill-opacity="0.05"/><circle cx="144" cy="346" r="2" fill="#111110" fill-opacity="0.05"/><circle cx="208" cy="346" r="2" fill="#111110" fill-opacity="0.05"/><circle cx="272" cy="346" r="2" fill="#111110" fill-opacity="0.05"/><circle cx="336" cy="346" r="2" fill="#111110" fill-opacity="0.05"/><circle cx="400" cy="346" r="2" fill="#111110" fill-opacity="0.05"/><circle cx="464" cy="346" r="2" fill="#111110" fill-opacity="0.05"/><circle cx="528" cy="346" r="2" fill="#111110" fill-opacity="0.05"/><circle cx="592" cy="346" r="2" fill="#111110" fill-opacity="0.05"/><circle cx="656" cy="346" r="2" fill="#111110" fill-opacity="0.05"/><circle cx="720" cy="346" r="2" fill="#111110" fill-opacity="0.05"/><circle cx="784" cy="346" r="2" fill="#111110" fill-opacity="0.05"/><circle cx="848" cy="346" r="2" fill="#111110" fill-opacity="0.05"/><circle cx="912" cy="346" r="2" fill="#111110" fill-opacity="0.05"/><circle cx="976" cy="346" r="2" fill="#111110" fill-opacity="0.05"/><circle cx="1040" cy="346" r="2" fill="#111110" fill-opacity="0.05"/><circle cx="1104" cy="346" r="2" fill="#111110" fill-opacity="0.05"/><circle cx="1168" cy="346" r="2" fill="#111110" fill-opacity="0.05"/><circle cx="80" cy="410" r="2" fill="#111110" fill-opacity="0.05"/><circle cx="144" cy="410" r="2" fill="#111110" fill-opacity="0.05"/><circle cx="208" cy="410" r="2" fill="#111110" fill-opacity="0.05"/><circle cx="272" cy="410" r="2" fill="#111110" fill-opacity="0.05"/><circle cx="336" cy="410" r="2" fill="#111110" fill-opacity="0.05"/><circle cx="400" cy="410" r="2" fill="#111110" fill-opacity="0.05"/><circle cx="464" cy="410" r="2" fill="#111110" fill-opacity="0.05"/><circle cx="528" cy="410" r="2" fill="#111110" fill-opacity="0.05"/><circle cx="592" cy="410" r="2" fill="#111110" fill-opacity="0.05"/><circle cx="656" cy="410" r="2" fill="#111110" fill-opacity="0.05"/><circle cx="720" cy="410" r="2" fill="#111110" fill-opacity="0.05"/><circle cx="784" cy="410" r="2" fill="#111110" fill-opacity="0.05"/><circle cx="848" cy="410" r="2" fill="#111110" fill-opacity="0.05"/><circle cx="912" cy="410" r="2" fill="#111110" fill-opacity="0.05"/><circle cx="976" cy="410" r="2" fill="#111110" fill-opacity="0.05"/><circle cx="1040" cy="410" r="2" fill="#111110" fill-opacity="0.05"/><circle cx="1104" cy="410" r="2" fill="#111110" fill-opacity="0.05"/><circle cx="1168" cy="410" r="2" fill="#111110" fill-opacity="0.05"/><circle cx="80" cy="474" r="2" fill="#111110" fill-opacity="0.05"/><circle cx="144" cy="474" r="2" fill="#111110" fill-opacity="0.05"/><circle cx="208" cy="474" r="2" fill="#111110" fill-opacity="0.05"/><circle cx="272" cy="474" r="2" fill="#111110" fill-opacity="0.05"/><circle cx="336" cy="474" r="2" fill="#111110" fill-opacity="0.05"/><circle cx="400" cy="474" r="2" fill="#111110" fill-opacity="0.05"/><circle cx="464" cy="474" r="2" fill="#111110" fill-opacity="0.05"/><circle cx="528" cy="474" r="2" fill="#111110" fill-opacity="0.05"/><circle cx="592" cy="474" r="2" fill="#111110" fill-opacity="0.05"/><circle cx="656" cy="474" r="2" fill="#111110" fill-opacity="0.05"/><circle cx="720" cy="474" r="2" fill="#111110" fill-opacity="0.05"/><circle cx="784" cy="474" r="2" fill="#111110" fill-opacity="0.05"/><circle cx="848" cy="474" r="2" fill="#111110" fill-opacity="0.05"/><circle cx="912" cy="474" r="2" fill="#111110" fill-opacity="0.05"/><circle cx="976" cy="474" r="2" fill="#111110" fill-opacity="0.05"/><circle cx="1040" cy="474" r="2" fill="#111110" fill-opacity="0.05"/><circle cx="1104" cy="474" r="2" fill="#111110" fill-opacity="0.05"/><circle cx="1168" cy="474" r="2" fill="#111110" fill-opacity="0.05"/><circle cx="80" cy="538" r="2" fill="#111110" fill-opacity="0.05"/><circle cx="144" cy="538" r="2" fill="#111110" fill-opacity="0.05"/><circle cx="208" cy="538" r="2" fill="#111110" fill-opacity="0.05"/><circle cx="272" cy="538" r="2" fill="#111110" fill-opacity="0.05"/><circle cx="336" cy="538" r="2" fill="#111110" fill-opacity="0.05"/><circle cx="400" cy="538" r="2" fill="#111110" fill-opacity="0.05"/><circle cx="464" cy="538" r="2" fill="#111110" fill-opacity="0.05"/><circle cx="528" cy="538" r="2" fill="#111110" fill-opacity="0.05"/><circle cx="592" cy="538" r="2" fill="#111110" fill-opacity="0.05"/><circle cx="656" cy="538" r="2" fill="#111110" fill-opacity="0.05"/><circle cx="720" cy="538" r="2" fill="#111110" fill-opacity="0.05"/><circle cx="784" cy="538" r="2" fill="#111110" fill-opacity="0.05"/><circle cx="848" cy="538" r="2" fill="#111110" fill-opacity="0.05"/><circle cx="912" cy="538" r="2" fill="#111110" fill-opacity="0.05"/><circle cx="976" cy="538" r="2" fill="#111110" fill-opacity="0.05"/><circle cx="1040" cy="538" r="2" fill="#111110" fill-opacity="0.05"/><circle cx="1104" cy="538" r="2" fill="#111110" fill-opacity="0.05"/><circle cx="1168" cy="538" r="2" fill="#111110" fill-opacity="0.05"/><circle cx="80" cy="602" r="2" fill="#111110" fill-opacity="0.05"/><circle cx="144" cy="602" r="2" fill="#111110" fill-opacity="0.05"/><circle cx="208" cy="602" r="2" fill="#111110" fill-opacity="0.05"/><circle cx="272" cy="602" r="2" fill="#111110" fill-opacity="0.05"/><circle cx="336" cy="602" r="2" fill="#111110" fill-opacity="0.05"/><circle cx="400" cy="602" r="2" fill="#111110" fill-opacity="0.05"/><circle cx="464" cy="602" r="2" fill="#111110" fill-opacity="0.05"/><circle cx="528" cy="602" r="2" fill="#111110" fill-opacity="0.05"/><circle cx="592" cy="602" r="2" fill="#111110" fill-opacity="0.05"/><circle cx="656" cy="602" r="2" fill="#111110" fill-opacity="0.05"/><circle cx="720" cy="602" r="2" fill="#111110" fill-opacity="0.05"/><circle cx="784" cy="602" r="2" fill="#111110" fill-opacity="0.05"/><circle cx="848" cy="602" r="2" fill="#111110" fill-opacity="0.05"/><circle cx="912" cy="602" r="2" fill="#111110" fill-opacity="0.05"/><circle cx="976" cy="602" r="2" fill="#111110" fill-opacity="0.05"/><circle cx="1040" cy="602" r="2" fill="#111110" fill-opacity="0.05"/><circle cx="1104" cy="602" r="2" fill="#111110" fill-opacity="0.05"/><circle cx="1168" cy="602" r="2" fill="#111110" fill-opacity="0.05"/><circle cx="80" cy="666" r="2" fill="#111110" fill-opacity="0.05"/><circle cx="144" cy="666" r="2" fill="#111110" fill-opacity="0.05"/><circle cx="208" cy="666" r="2" fill="#111110" fill-opacity="0.05"/><circle cx="272" cy="666" r="2" fill="#111110" fill-opacity="0.05"/><circle cx="336" cy="666" r="2" fill="#111110" fill-opacity="0.05"/><circle cx="400" cy="666" r="2" fill="#111110" fill-opacity="0.05"/><circle cx="464" cy="666" r="2" fill="#111110" fill-opacity="0.05"/><circle cx="528" cy="666" r="2" fill="#111110" fill-opacity="0.05"/><circle cx="592" cy="666" r="2" fill="#111110" fill-opacity="0.05"/><circle cx="656" cy="666" r="2" fill="#111110" fill-opacity="0.05"/><circle cx="720" cy="666" r="2" fill="#111110" fill-opacity="0.05"/><circle cx="784" cy="666" r="2" fill="#111110" fill-opacity="0.05"/><circle cx="848" cy="666" r="2" fill="#111110" fill-opacity="0.05"/><circle cx="912" cy="666" r="2" fill="#111110" fill-opacity="0.05"/><circle cx="976" cy="666" r="2" fill="#111110" fill-opacity="0.05"/><circle cx="1040" cy="666" r="2" fill="#111110" fill-opacity="0.05"/><circle cx="1104" cy="666" r="2" fill="#111110" fill-opacity="0.05"/><circle cx="1168" cy="666" r="2" fill="#111110" fill-opacity="0.05"/><circle cx="80" cy="730" r="2" fill="#111110" fill-opacity="0.05"/><circle cx="144" cy="730" r="2" fill="#111110" fill-opacity="0.05"/><circle cx="208" cy="730" r="2" fill="#111110" fill-opacity="0.05"/><circle cx="272" cy="730" r="2" fill="#111110" fill-opacity="0.05"/><circle cx="336" cy="730" r="2" fill="#111110" fill-opacity="0.05"/><circle cx="400" cy="730" r="2" fill="#111110" fill-opacity="0.05"/><circle cx="464" cy="730" r="2" fill="#111110" fill-opacity="0.05"/><circle cx="528" cy="730" r="2" fill="#111110" fill-opacity="0.05"/><circle cx="592" cy="730" r="2" fill="#111110" fill-opacity="0.05"/><circle cx="656" cy="730" r="2" fill="#111110" fill-opacity="0.05"/><circle cx="720" cy="730" r="2" fill="#111110" fill-opacity="0.05"/><circle cx="784" cy="730" r="2" fill="#111110" fill-opacity="0.05"/><circle cx="848" cy="730" r="2" fill="#111110" fill-opacity="0.05"/><circle cx="912" cy="730" r="2" fill="#111110" fill-opacity="0.05"/><circle cx="976" cy="730" r="2" fill="#111110" fill-opacity="0.05"/><circle cx="1040" cy="730" r="2" fill="#111110" fill-opacity="0.05"/><circle cx="1104" cy="730" r="2" fill="#111110" fill-opacity="0.05"/><circle cx="1168" cy="730" r="2" fill="#111110" fill-opacity="0.05"/><line x1="175" y1="223" x2="671" y2="223" stroke="#111110" stroke-width="2" stroke-opacity="0.12" transform="rotate(5 423 269)"/><line x1="175" y1="269" x2="671" y2="269" stroke="#111110" stroke-width="2" stroke-opacity="0.12" transform="rotate(5 423 269)"/><line x1="175" y1="315" x2="671" y2="315" stroke="#111110" stroke-width="2" stroke-opacity="0.12" transform="rotate(5 423 269)"/><circle cx="423" cy="269" r="124" fill="none" stroke="#7c3aed" stroke-width="3" stroke-opacity="0.7"/><circle cx="423" cy="269" r="9" fill="#7c3aed"/></svg>