<svg xmlns="http://www.w3.org/2000/svg" viewBox="0 0 1200 750" width="1200" height="750" role="img"><rect width="1200" height="750" fill="#fbfaf7"/><circle cx="607" cy="356" r="255" fill="#475569" fill-opacity="0.10"/><circle cx="76" cy="90" r="2" fill="#111110" fill-opacity="0.05"/><circle cx="140" cy="90" r="2" fill="#111110" fill-opacity="0.05"/><circle cx="204" cy="90" r="2" fill="#111110" fill-opacity="0.05"/><circle cx="268" cy="90" r="2" fill="#111110" fill-opacity="0.05"/><circle cx="332" cy="90" r="2" fill="#111110" fill-opacity="0.05"/><circle cx="396" cy="90" r="2" fill="#111110" fill-opacity="0.05"/><circle cx="460" cy="90" r="2" fill="#111110" fill-opacity="0.05"/><circle cx="524" cy="90" r="2" fill="#111110" fill-opacity="0.05"/><circle cx="588" cy="90" r="2" fill="#111110" fill-opacity="0.05"/><circle cx="652" cy="90" r="2" fill="#111110" fill-opacity="0.05"/><circle cx="716" cy="90" r="2" fill="#111110" fill-opacity="0.05"/><circle cx="780" cy="90" r="2" fill="#111110" fill-opacity="0.05"/><circle cx="844" cy="90" r="2" fill="#111110" fill-opacity="0.05"/><circle cx="908" cy="90" r="2" fill="#111110" fill-opacity="0.05"/><circle cx="972" cy="90" r="2" fill="#111110" fill-opacity="0.05"/><circle cx="1036" cy="90" r="2" fill="#111110" fill-opacity="0.05"/><circle cx="1100" cy="90" r="2" fill="#111110" fill-opacity="0.05"/><circle cx="1164" cy="90" r="2" fill="#111110" fill-opacity="0.05"/><circle cx="76" cy="154" r="2" fill="#111110" fill-opacity="0.05"/><circle cx="140" cy="154" r="2" fill="#111110" fill-opacity="0.05"/><circle cx="204" cy="154" r="2" fill="#111110" fill-opacity="0.05"/><circle cx="268" cy="154" r="2" fill="#111110" fill-opacity="0.05"/><circle cx="332" cy="154" r="2" fill="#111110" fill-opacity="0.05"/><circle cx="396" cy="154" r="2" fill="#111110" fill-opacity="0.05"/><circle cx="460" cy="154" r="2" fill="#111110" fill-opacity="0.05"/><circle cx="524" cy="154" r="2" fill="#111110" fill-opacity="0.05"/><circle cx="588" cy="154" r="2" fill="#111110" fill-opacity="0.05"/><circle cx="652" cy="154" r="2" fill="#111110" fill-opacity="0.05"/><circle cx="716" cy="154" r="2" fill="#111110" fill-opacity="0.05"/><circle cx="780" cy="154" r="2" fill="#111110" fill-opacity="0.05"/><circle cx="844" cy="154" r="2" fill="#111110" fill-opacity="0.05"/><circle cx="908" cy="154" r="2" fill="#111110" fill-opacity="0.05"/><circle cx="972" cy="154" r="2" fill="#111110" fill-opacity="0.05"/><circle cx="1036" cy="154" r="2" fill="#111110" fill-opacity="0.05"/><circle cx="1100" cy="154" r="2" fill="#111110" fill-opacity="0.05"/><circle cx="1164" cy="154" r="2" fill="#111110" fill-opacity="0.05"/><circle cx="76" cy="218" r="2" fill="#111110" fill-opacity="0.05"/><circle cx="140" cy="218" r="2" fill="#111110" fill-opacity="0.05"/><circle cx="204" cy="218" r="2" fill="#111110" fill-opacity="0.05"/><circle cx="268" cy="218" r="2" fill="#111110" fill-opacity="0.05"/><circle cx="332" cy="218" r="2" fill="#111110" fill-opacity="0.05"/><circle cx="396" cy="218" r="2" fill="#111110" fill-opacity="0.05"/><circle cx="460" cy="218" r="2" fill="#111110" fill-opacity="0.05"/><circle cx="524" cy="218" r="2" fill="#111110" fill-opacity="0.05"/><circle cx="588" cy="218" r="2" fill="#111110" fill-opacity="0.05"/><circle cx="652" cy="218" r="2" fill="#111110" fill-opacity="0.05"/><circle cx="716" cy="218" r="2" fill="#111110" fill-opacity="0.05"/><circle cx="780" cy="218" r="2" fill="#111110" fill-opacity="0.05"/><circle cx="844" cy="218" r="2" fill="#111110" fill-opacity="0.05"/><circle cx="908" cy="218" r="2" fill="#111110" fill-opacity="0.05"/><circle cx="972" cy="218" r="2" fill="#111110" fill-opacity="0.05"/><circle cx="1036" cy="218" r="2" fill="#111110" fill-opacity="0.05"/><circle cx="1100" cy="218" r="2" fill="#111110" fill-opacity="0.05"/><circle cx="1164" cy="218" r="2" fill="#111110" fill-opacity="0.05"/><circle cx="76" cy="282" r="2" fill="#111110" fill-opacity="0.05"/><circle cx="140" cy="282" r="2" fill="#111110" fill-opacity="0.05"/><circle cx="204" cy="282" r="2" fill="#111110" fill-opacity="0.05"/><circle cx="268" cy="282" r="2" fill="#111110" fill-opacity="0.05"/><circle cx="332" cy="282" r="2" fill="#111110" fill-opacity="0.05"/><circle cx="396" cy="282" r="2" fill="#111110" fill-opacity="0.05"/><circle cx="460" cy="282" r="2" fill="#111110" fill-opacity="0.05"/><circle cx="524" cy="282" r="2" fill="#111110" fill-opacity="0.05"/><circle cx="588" cy="282" r="2" fill="#111110" fill-opacity="0.05"/><circle cx="652" cy="282" r="2" fill="#111110" fill-opacity="0.05"/><circle cx="716" cy="282" r="2" fill="#111110" fill-opacity="0.05"/><circle cx="780" cy="282" r="2" fill="#111110" fill-opacity="0.05"/><circle cx="844" cy="282" r="2" fill="#111110" fill-opacity="0.05"/><circle cx="908" cy="282" r="2" fill="#111110" fill-opacity="0.05"/><circle cx="972" cy="282" r="2" fill="#111110" fill-opacity="0.05"/><circle cx="1036" cy="282" r="2" fill="#111110" fill-opacity="0.05"/><circle cx="1100" cy="282" r="2" fill="#111110" fill-opacity="0.05"/><circle cx="1164" cy="282" r="2" fill="#111110" fill-opacity="0.05"/><circle cx="76" cy="346" r="2" fill="#111110" fill-opacity="0.05"/><circle cx="140" cy="346" r="2" fill="#111110" fill-opacity="0.05"/><circle cx="204" cy="346" r="2" fill="#111110" fill-opacity="0.05"/><circle cx="268" cy="346" r="2" fill="#111110" fill-opacity="0.05"/><circle cx="332" cy="346" r="2" fill="#111110" fill-opacity="0.05"/><circle cx="396" cy="346" r="2" fill="#111110" fill-opacity="0.05"/><circle cx="460" cy="346" r="2" fill="#111110" fill-opacity="0.05"/><circle cx="524" cy="346" r="2" fill="#111110" fill-opacity="0.05"/><circle cx="588" cy="346" r="2" fill="#111110" fill-opacity="0.05"/><circle cx="652" cy="346" r="2" fill="#111110" fill-opacity="0.05"/><circle cx="716" cy="346" r="2" fill="#111110" fill-opacity="0.05"/><circle cx="780" cy="346" r="2" fill="#111110" fill-opacity="0.05"/><circle cx="844" cy="346" r="2" fill="#111110" fill-opacity="0.05"/><circle cx="908" cy="346" r="2" fill="#111110" fill-opacity="0.05"/><circle cx="972" cy="346" r="2" fill="#111110" fill-opacity="0.05"/><circle cx="1036" cy="346" r="2" fill="#111110" fill-opacity="0.05"/><circle cx="1100" cy="346" r="2" fill="#111110" fill-opacity="0.05"/><circle cx="1164" cy="346" r="2" fill="#111110" fill-opacity="0.05"/><circle cx="76" cy="410" r="2" fill="#111110" fill-opacity="0.05"/><circle cx="140" cy="410" r="2" fill="#111110" fill-opacity="0.05"/><circle cx="204" cy="410" r="2" fill="#111110" fill-opacity="0.05"/><circle cx="268" cy="410" r="2" fill="#111110" fill-opacity="0.05"/><circle cx="332" cy="410" r="2" fill="#111110" fill-opacity="0.05"/><circle cx="396" cy="410" r="2" fill="#111110" fill-opacity="0.05"/><circle cx="460" cy="410" r="2" fill="#111110" fill-opacity="0.05"/><circle cx="524" cy="410" r="2" fill="#111110" fill-opacity="0.05"/><circle cx="588" cy="410" r="2" fill="#111110" fill-opacity="0.05"/><circle cx="652" cy="410" r="2" fill="#111110" fill-opacity="0.05"/><circle cx="716" cy="410" r="2" fill="#111110" fill-opacity="0.05"/><circle cx="780" cy="410" r="2" fill="#111110" fill-opacity="0.05"/><circle cx="844" cy="410" r="2" fill="#111110" fill-opacity="0.05"/><circle cx="908" cy="410" r="2" fill="#111110" fill-opacity="0.05"/><circle cx="972" cy="410" r="2" fill="#111110" fill-opacity="0.05"/><circle cx="1036" cy="410" r="2" fill="#111110" fill-opacity="0.05"/><circle cx="1100" cy="410" r="2" fill="#111110" fill-opacity="0.05"/><circle cx="1164" cy="410" r="2" fill="#111110" fill-opacity="0.05"/><circle cx="76" cy="474" r="2" fill="#111110" fill-opacity="0.05"/><circle cx="140" cy="474" r="2" fill="#111110" fill-opacity="0.05"/><circle cx="204" cy="474" r="2" fill="#111110" fill-opacity="0.05"/><circle cx="268" cy="474" r="2" fill="#111110" fill-opacity="0.05"/><circle cx="332" cy="474" r="2" fill="#111110" fill-opacity="0.05"/><circle cx="396" cy="474" r="2" fill="#111110" fill-opacity="0.05"/><circle cx="460" cy="474" r="2" fill="#111110" fill-opacity="0.05"/><circle cx="524" cy="474" r="2" fill="#111110" fill-opacity="0.05"/><circle cx="588" cy="474" r="2" fill="#111110" fill-opacity="0.05"/><circle cx="652" cy="474" r="2" fill="#111110" fill-opacity="0.05"/><circle cx="716" cy="474" r="2" fill="#111110" fill-opacity="0.05"/><circle cx="780" cy="474" r="2" fill="#111110" fill-opacity="0.05"/><circle cx="844" cy="474" r="2" fill="#111110" fill-opacity="0.05"/><circle cx="908" cy="474" r="2" fill="#111110" fill-opacity="0.05"/><circle cx="972" cy="474" r="2" fill="#111110" fill-opacity="0.05"/><circle cx="1036" cy="474" r="2" fill="#111110" fill-opacity="0.05"/><circle cx="1100" cy="474" r="2" fill="#111110" fill-opacity="0.05"/><circle cx="1164" cy="474" r="2" fill="#111110" fill-opacity="0.05"/><circle cx="76" cy="538" r="2" fill="#111110" fill-opacity="0.05"/><circle cx="140" cy="538" r="2" fill="#111110" fill-opacity="0.05"/><circle cx="204" cy="538" r="2" fill="#111110" fill-opacity="0.05"/><circle cx="268" cy="538" r="2" fill="#111110" fill-opacity="0.05"/><circle cx="332" cy="538" r="2" fill="#111110" fill-opacity="0.05"/><circle cx="396" cy="538" r="2" fill="#111110" fill-opacity="0.05"/><circle cx="460" cy="538" r="2" fill="#111110" fill-opacity="0.05"/><circle cx="524" cy="538" r="2" fill="#111110" fill-opacity="0.05"/><circle cx="588" cy="538" r="2" fill="#111110" fill-opacity="0.05"/><circle cx="652" cy="538" r="2" fill="#111110" fill-opacity="0.05"/><circle cx="716" cy="538" r="2" fill="#111110" fill-opacity="0.05"/><circle cx="780" cy="538" r="2" fill="#111110" fill-opacity="0.05"/><circle cx="844" cy="538" r="2" fill="#111110" fill-opacity="0.05"/><circle cx="908" cy="538" r="2" fill="#111110" fill-opacity="0.05"/><circle cx="972" cy="538" r="2" fill="#111110" fill-opacity="0.05"/><circle cx="1036" cy="538" r="2" fill="#111110" fill-opacity="0.05"/><circle cx="1100" cy="538" r="2" fill="#111110" fill-opacity="0.05"/><circle cx="1164" cy="538" r="2" fill="#111110" fill-opacity="0.05"/><circle cx="76" cy="602" r="2" fill="#111110" fill-opacity="0.05"/><circle cx="140" cy="602" r="2" fill="#111110" fill-opacity="0.05"/><circle cx="204" cy="602" r="2" fill="#111110" fill-opacity="0.05"/><circle cx="268" cy="602" r="2" fill="#111110" fill-opacity="0.05"/><circle cx="332" cy="602" r="2" fill="#111110" fill-opacity="0.05"/><circle cx="396" cy="602" r="2" fill="#111110" fill-opacity="0.05"/><circle cx="460" cy="602" r="2" fill="#111110" fill-opacity="0.05"/><circle cx="524" cy="602" r="2" fill="#111110" fill-opacity="0.05"/><circle cx="588" cy="602" r="2" fill="#111110" fill-opacity="0.05"/><circle cx="652" cy="602" r="2" fill="#111110" fill-opacity="0.05"/><circle cx="716" cy="602" r="2" fill="#111110" fill-opacity="0.05"/><circle cx="780" cy="602" r="2" fill="#111110" fill-opacity="0.05"/><circle cx="844" cy="602" r="2" fill="#111110" fill-opacity="0.05"/><circle cx="908" cy="602" r="2" fill="#111110" fill-opacity="0.05"/><circle cx="972" cy="602" r="2" fill="#111110" fill-opacity="0.05"/><circle cx="1036" cy="602" r="2" fill="#111110" fill-opacity="0.05"/><circle cx="1100" cy="602" r="2" fill="#111110" fill-opacity="0.05"/><circle cx="1164" cy="602" r="2" fill="#111110" fill-opacity="0.05"/><circle cx="76" cy="666" r="2" fill="#111110" fill-opacity="0.05"/><circle cx="140" cy="666" r="2" fill="#111110" fill-opacity="0.05"/><circle cx="204" cy="666" r="2" fill="#111110" fill-opacity="0.05"/><circle cx="268" cy="666" r="2" fill="#111110" fill-opacity="0.05"/><circle cx="332" cy="666" r="2" fill="#111110" fill-opacity="0.05"/><circle cx="396" cy="666" r="2" fill="#111110" fill-opacity="0.05"/><circle cx="460" cy="666" r="2" fill="#111110" fill-opacity="0.05"/><circle cx="524" cy="666" r="2" fill="#111110" fill-opacity="0.05"/><circle cx="588" cy="666" r="2" fill="#111110" fill-opacity="0.05"/><circle cx="652" cy="666" r="2" fill="#111110" fill-opacity="0.05"/><circle cx="716" cy="666" r="2" fill="#111110" fill-opacity="0.05"/><circle cx="780" cy="666" r="2" fill="#111110" fill-opacity="0.05"/><circle cx="844" cy="666" r="2" fill="#111110" fill-opacity="0.05"/><circle cx="908" cy="666" r="2" fill="#111110" fill-opacity="0.05"/><circle cx="972" cy="666" r="2" fill="#111110" fill-opacity="0.05"/><circle cx="1036" cy="666" r="2" fill="#111110" fill-opacity="0.05"/><circle cx="1100" cy="666" r="2" fill="#111110" fill-opacity="0.05"/><circle cx="1164" cy="666" r="2" fill="#111110" fill-opacity="0.05"/><circle cx="76" cy="730" r="2" fill="#111110" fill-opacity="0.05"/><circle cx="140" cy="730" r="2" fill="#111110" fill-opacity="0.05"/><circle cx="204" cy="730" r="2" fill="#111110" fill-opacity="0.05"/><circle cx="268" cy="730" r="2" fill="#111110" fill-opacity="0.05"/><circle cx="332" cy="730" r="2" fill="#111110" fill-opacity="0.05"/><circle cx="396" cy="730" r="2" fill="#111110" fill-opacity="0.05"/><circle cx="460" cy="730" r="2" fill="#111110" fill-opacity="0.05"/><circle cx="524" cy="730" r="2" fill="#111110" fill-opacity="0.05"/><circle cx="588" cy="730" r="2" fill="#111110" fill-opacity="0.05"/><circle cx="652" cy="730" r="2" fill="#111110" fill-opacity="0.05"/><circle cx="716" cy="730" r="2" fill="#111110" fill-opacity="0.05"/><circle cx="780" cy="730" r="2" fill="#111110" fill-opacity="0.05"/><circle cx="844" cy="730" r="2" fill="#111110" fill-opacity="0.05"/><circle cx="908" cy="730" r="2" fill="#111110" fill-opacity="0.05"/><circle cx="972" cy="730" r="2" fill="#111110" fill-opacity="0.05"/><circle cx="1036" cy="730" r="2" fill="#111110" fill-opacity="0.05"/><circle cx="1100" cy="730" r="2" fill="#111110" fill-opacity="0.05"/><circle cx="1164" cy="730" r="2" fill="#111110" fill-opacity="0.05"/><path d="M 352 356 A 255 255 0 0 1 862 356" fill="none" stroke="#475569" stroke-width="3" stroke-opacity="0.7" transform="rotate(254 607 356)"/><circle cx="607" cy="356" r="128" fill="none" stroke="#111110" stroke-width="1.5" stroke-opacity="0.3"/><circle cx="862" cy="356" r="8" fill="#475569" transform="rotate(254 607 356)"/></svg>