<svg xmlns="http://www.w3.org/2000/svg" viewBox="0 0 1200 750" width="1200" height="750" role="img"><rect width="1200" height="750" fill="#fbfaf7"/><circle cx="677" cy="386" r="203" fill="#d97706" fill-opacity="0.10"/><circle cx="51" cy="90" r="2" fill="#111110" fill-opacity="0.05"/><circle cx="115" cy="90" r="2" fill="#111110" fill-opacity="0.05"/><circle cx="179" cy="90" r="2" fill="#111110" fill-opacity="0.05"/><circle cx="243" cy="90" r="2" fill="#111110" fill-opacity="0.05"/><circle cx="307" cy="90" r="2" fill="#111110" fill-opacity="0.05"/><circle cx="371" cy="90" r="2" fill="#111110" fill-opacity="0.05"/><circle cx="435" cy="90" r="2" fill="#111110" fill-opacity="0.05"/><circle cx="499" cy="90" r="2" fill="#111110" fill-opacity="0.05"/><circle cx="563" cy="90" r="2" fill="#111110" fill-opacity="0.05"/><circle cx="627" cy="90" r="2" fill="#111110" fill-opacity="0.05"/><circle cx="691" cy="90" r="2" fill="#111110" fill-opacity="0.05"/><circle cx="755" cy="90" r="2" fill="#111110" fill-opacity="0.05"/><circle cx="819" cy="90" r="2" fill="#111110" fill-opacity="0.05"/><circle cx="883" cy="90" r="2" fill="#111110" fill-opacity="0.05"/><circle cx="947" cy="90" r="2" fill="#111110" fill-opacity="0.05"/><circle cx="1011" cy="90" r="2" fill="#111110" fill-opacity="0.05"/><circle cx="1075" cy="90" r="2" fill="#111110" fill-opacity="0.05"/><circle cx="1139" cy="90" r="2" fill="#111110" fill-opacity="0.05"/><circle cx="51" cy="154" r="2" fill="#111110" fill-opacity="0.05"/><circle cx="115" cy="154" r="2" fill="#111110" fill-opacity="0.05"/><circle cx="179" cy="154" r="2" fill="#111110" fill-opacity="0.05"/><circle cx="243" cy="154" r="2" fill="#111110" fill-opacity="0.05"/><circle cx="307" cy="154" r="2" fill="#111110" fill-opacity="0.05"/><circle cx="371" cy="154" r="2" fill="#111110" fill-opacity="0.05"/><circle cx="435" cy="154" r="2" fill="#111110" fill-opacity="0.05"/><circle cx="499" cy="154" r="2" fill="#111110" fill-opacity="0.05"/><circle cx="563" cy="154" r="2" fill="#111110" fill-opacity="0.05"/><circle cx="627" cy="154" r="2" fill="#111110" fill-opacity="0.05"/><circle cx="691" cy="154" r="2" fill="#111110" fill-opacity="0.05"/><circle cx="755" cy="154" r="2" fill="#111110" fill-opacity="0.05"/><circle cx="819" cy="154" r="2" fill="#111110" fill-opacity="0.05"/><circle cx="883" cy="154" r="2" fill="#111110" fill-opacity="0.05"/><circle cx="947" cy="154" r="2" fill="#111110" fill-opacity="0.05"/><circle cx="1011" cy="154" r="2" fill="#111110" fill-opacity="0.05"/><circle cx="1075" cy="154" r="2" fill="#111110" fill-opacity="0.05"/><circle cx="1139" cy="154" r="2" fill="#111110" fill-opacity="0.05"/><circle cx="51" cy="218" r="2" fill="#111110" fill-opacity="0.05"/><circle cx="115" cy="218" r="2" fill="#111110" fill-opacity="0.05"/><circle cx="179" cy="218" r="2" fill="#111110" fill-opacity="0.05"/><circle cx="243" cy="218" r="2" fill="#111110" fill-opacity="0.05"/><circle cx="307" cy="218" r="2" fill="#111110" fill-opacity="0.05"/><circle cx="371" cy="218" r="2" fill="#111110" fill-opacity="0.05"/><circle cx="435" cy="218" r="2" fill="#111110" fill-opacity="0.05"/><circle cx="499" cy="218" r="2" fill="#111110" fill-opacity="0.05"/><circle cx="563" cy="218" r="2" fill="#111110" fill-opacity="0.05"/><circle cx="627" cy="218" r="2" fill="#111110" fill-opacity="0.05"/><circle cx="691" cy="218" r="2" fill="#111110" fill-opacity="0.05"/><circle cx="755" cy="218" r="2" fill="#111110" fill-opacity="0.05"/><circle cx="819" cy="218" r="2" fill="#111110" fill-opacity="0.05"/><circle cx="883" cy="218" r="2" fill="#111110" fill-opacity="0.05"/><circle cx="947" cy="218" r="2" fill="#111110" fill-opacity="0.05"/><circle cx="1011" cy="218" r="2" fill="#111110" fill-opacity="0.05"/><circle cx="1075" cy="218" r="2" fill="#111110" fill-opacity="0.05"/><circle cx="1139" cy="218" r="2" fill="#111110" fill-opacity="0.05"/><circle cx="51" cy="282" r="2" fill="#111110" fill-opacity="0.05"/><circle cx="115" cy="282" r="2" fill="#111110" fill-opacity="0.05"/><circle cx="179" cy="282" r="2" fill="#111110" fill-opacity="0.05"/><circle cx="243" cy="282" r="2" fill="#111110" fill-opacity="0.05"/><circle cx="307" cy="282" r="2" fill="#111110" fill-opacity="0.05"/><circle cx="371" cy="282" r="2" fill="#111110" fill-opacity="0.05"/><circle cx="435" cy="282" r="2" fill="#111110" fill-opacity="0.05"/><circle cx="499" cy="282" r="2" fill="#111110" fill-opacity="0.05"/><circle cx="563" cy="282" r="2" fill="#111110" fill-opacity="0.05"/><circle cx="627" cy="282" r="2" fill="#111110" fill-opacity="0.05"/><circle cx="691" cy="282" r="2" fill="#111110" fill-opacity="0.05"/><circle cx="755" cy="282" r="2" fill="#111110" fill-opacity="0.05"/><circle cx="819" cy="282" r="2" fill="#111110" fill-opacity="0.05"/><circle cx="883" cy="282" r="2" fill="#111110" fill-opacity="0.05"/><circle cx="947" cy="282" r="2" fill="#111110" fill-opacity="0.05"/><circle cx="1011" cy="282" r="2" fill="#111110" fill-opacity="0.05"/><circle cx="1075" cy="282" r="2" fill="#111110" fill-opacity="0.05"/><circle cx="1139" cy="282" r="2" fill="#111110" fill-opacity="0.05"/><circle cx="51" cy="346" r="2" fill="#111110" fill-opacity="0.05"/><circle cx="115" cy="346" r="2" fill="#111110" fill-opacity="0.05"/><circle cx="179" cy="346" r="2" fill="#111110" fill-opacity="0.05"/><circle cx="243" cy="346" r="2" fill="#111110" fill-opacity="0.05"/><circle cx="307" cy="346" r="2" fill="#111110" fill-opacity="0.05"/><circle cx="371" cy="346" r="2" fill="#111110" fill-opacity="0.05"/><circle cx="435" cy="346" r="2" fill="#111110" fill-opacity="0.05"/><circle cx="499" cy="346" r="2" fill="#111110" fill-opacity="0.05"/><circle cx="563" cy="346" r="2" fill="#111110" fill-opacity="0.05"/><circle cx="627" cy="346" r="2" fill="#111110" fill-opacity="0.05"/><circle cx="691" cy="346" r="2" fill="#111110" fill-opacity="0.05"/><circle cx="755" cy="346" r="2" fill="#111110" fill-opacity="0.05"/><circle cx="819" cy="346" r="2" fill="#111110" fill-opacity="0.05"/><circle cx="883" cy="346" r="2" fill="#111110" fill-opacity="0.05"/><circle cx="947" cy="346" r="2" fill="#111110" fill-opacity="0.05"/><circle cx="1011" cy="346" r="2" fill="#111110" fill-opacity="0.05"/><circle cx="1075" cy="346" r="2" fill="#111110" fill-opacity="0.05"/><circle cx="1139" cy="346" r="2" fill="#111110" fill-opacity="0.05"/><circle cx="51" cy="410" r="2" fill="#111110" fill-opacity="0.05"/><circle cx="115" cy="410" r="2" fill="#111110" fill-opacity="0.05"/><circle cx="179" cy="410" r="2" fill="#111110" fill-opacity="0.05"/><circle cx="243" cy="410" r="2" fill="#111110" fill-opacity="0.05"/><circle cx="307" cy="410" r="2" fill="#111110" fill-opacity="0.05"/><circle cx="371" cy="410" r="2" fill="#111110" fill-opacity="0.05"/><circle cx="435" cy="410" r="2" fill="#111110" fill-opacity="0.05"/><circle cx="499" cy="410" r="2" fill="#111110" fill-opacity="0.05"/><circle cx="563" cy="410" r="2" fill="#111110" fill-opacity="0.05"/><circle cx="627" cy="410" r="2" fill="#111110" fill-opacity="0.05"/><circle cx="691" cy="410" r="2" fill="#111110" fill-opacity="0.05"/><circle cx="755" cy="410" r="2" fill="#111110" fill-opacity="0.05"/><circle cx="819" cy="410" r="2" fill="#111110" fill-opacity="0.05"/><circle cx="883" cy="410" r="2" fill="#111110" fill-opacity="0.05"/><circle cx="947" cy="410" r="2" fill="#111110" fill-opacity="0.05"/><circle cx="1011" cy="410" r="2" fill="#111110" fill-opacity="0.05"/><circle cx="1075" cy="410" r="2" fill="#111110" fill-opacity="0.05"/><circle cx="1139" cy="410" r="2" fill="#111110" fill-opacity="0.05"/><circle cx="51" cy="474" r="2" fill="#111110" fill-opacity="0.05"/><circle cx="115" cy="474" r="2" fill="#111110" fill-opacity="0.05"/><circle cx="179" cy="474" r="2" fill="#111110" fill-opacity="0.05"/><circle cx="243" cy="474" r="2" fill="#111110" fill-opacity="0.05"/><circle cx="307" cy="474" r="2" fill="#111110" fill-opacity="0.05"/><circle cx="371" cy="474" r="2" fill="#111110" fill-opacity="0.05"/><circle cx="435" cy="474" r="2" fill="#111110" fill-opacity="0.05"/><circle cx="499" cy="474" r="2" fill="#111110" fill-opacity="0.05"/><circle cx="563" cy="474" r="2" fill="#111110" fill-opacity="0.05"/><circle cx="627" cy="474" r="2" fill="#111110" fill-opacity="0.05"/><circle cx="691" cy="474" r="2" fill="#111110" fill-opacity="0.05"/><circle cx="755" cy="474" r="2" fill="#111110" fill-opacity="0.05"/><circle cx="819" cy="474" r="2" fill="#111110" fill-opacity="0.05"/><circle cx="883" cy="474" r="2" fill="#111110" fill-opacity="0.05"/><circle cx="947" cy="474" r="2" fill="#111110" fill-opacity="0.05"/><circle cx="1011" cy="474" r="2" fill="#111110" fill-opacity="0.05"/><circle cx="1075" cy="474" r="2" fill="#111110" fill-opacity="0.05"/><circle cx="1139" cy="474" r="2" fill="#111110" fill-opacity="0.05"/><circle cx="51" cy="538" r="2" fill="#111110" fill-opacity="0.05"/><circle cx="115" cy="538" r="2" fill="#111110" fill-opacity="0.05"/><circle cx="179" cy="538" r="2" fill="#111110" fill-opacity="0.05"/><circle cx="243" cy="538" r="2" fill="#111110" fill-opacity="0.05"/><circle cx="307" cy="538" r="2" fill="#111110" fill-opacity="0.05"/><circle cx="371" cy="538" r="2" fill="#111110" fill-opacity="0.05"/><circle cx="435" cy="538" r="2" fill="#111110" fill-opacity="0.05"/><circle cx="499" cy="538" r="2" fill="#111110" fill-opacity="0.05"/><circle cx="563" cy="538" r="2" fill="#111110" fill-opacity="0.05"/><circle cx="627" cy="538" r="2" fill="#111110" fill-opacity="0.05"/><circle cx="691" cy="538" r="2" fill="#111110" fill-opacity="0.05"/><circle cx="755" cy="538" r="2" fill="#111110" fill-opacity="0.05"/><circle cx="819" cy="538" r="2" fill="#111110" fill-opacity="0.05"/><circle cx="883" cy="538" r="2" fill="#111110" fill-opacity="0.05"/><circle cx="947" cy="538" r="2" fill="#111110" fill-opacity="0.05"/><circle cx="1011" cy="538" r="2" fill="#111110" fill-opacity="0.05"/><circle cx="1075" cy="538" r="2" fill="#111110" fill-opacity="0.05"/><circle cx="1139" cy="538" r="2" fill="#111110" fill-opacity="0.05"/><circle cx="51" cy="602" r="2" fill="#111110" fill-opacity="0.05"/><circle cx="115" cy="602" r="2" fill="#111110" fill-opacity="0.05"/><circle cx="179" cy="602" r="2" fill="#111110" fill-opacity="0.05"/><circle cx="243" cy="602" r="2" fill="#111110" fill-opacity="0.05"/><circle cx="307" cy="602" r="2" fill="#111110" fill-opacity="0.05"/><circle cx="371" cy="602" r="2" fill="#111110" fill-opacity="0.05"/><circle cx="435" cy="602" r="2" fill="#111110" fill-opacity="0.05"/><circle cx="499" cy="602" r="2" fill="#111110" fill-opacity="0.05"/><circle cx="563" cy="602" r="2" fill="#111110" fill-opacity="0.05"/><circle cx="627" cy="602" r="2" fill="#111110" fill-opacity="0.05"/><circle cx="691" cy="602" r="2" fill="#111110" fill-opacity="0.05"/><circle cx="755" cy="602" r="2" fill="#111110" fill-opacity="0.05"/><circle cx="819" cy="602" r="2" fill="#111110" fill-opacity="0.05"/><circle cx="883" cy="602" r="2" fill="#111110" fill-opacity="0.05"/><circle cx="947" cy="602" r="2" fill="#111110" fill-opacity="0.05"/><circle cx="1011" cy="602" r="2" fill="#111110" fill-opacity="0.05"/><circle cx="1075" cy="602" r="2" fill="#111110" fill-opacity="0.05"/><circle cx="1139" cy="602" r="2" fill="#111110" fill-opacity="0.05"/><circle cx="51" cy="666" r="2" fill="#111110" fill-opacity="0.05"/><circle cx="115" cy="666" r="2" fill="#111110" fill-opacity="0.05"/><circle cx="179" cy="666" r="2" fill="#111110" fill-opacity="0.05"/><circle cx="243" cy="666" r="2" fill="#111110" fill-opacity="0.05"/><circle cx="307" cy="666" r="2" fill="#111110" fill-opacity="0.05"/><circle cx="371" cy="666" r="2" fill="#111110" fill-opacity="0.05"/><circle cx="435" cy="666" r="2" fill="#111110" fill-opacity="0.05"/><circle cx="499" cy="666" r="2" fill="#111110" fill-opacity="0.05"/><circle cx="563" cy="666" r="2" fill="#111110" fill-opacity="0.05"/><circle cx="627" cy="666" r="2" fill="#111110" fill-opacity="0.05"/><circle cx="691" cy="666" r="2" fill="#111110" fill-opacity="0.05"/><circle cx="755" cy="666" r="2" fill="#111110" fill-opacity="0.05"/><circle cx="819" cy="666" r="2" fill="#111110" fill-opacity="0.05"/><circle cx="883" cy="666" r="2" fill="#111110" fill-opacity="0.05"/><circle cx="947" cy="666" r="2" fill="#111110" fill-opacity="0.05"/><circle cx="1011" cy="666" r="2" fill="#111110" fill-opacity="0.05"/><circle cx="1075" cy="666" r="2" fill="#111110" fill-opacity="0.05"/><circle cx="1139" cy="666" r="2" fill="#111110" fill-opacity="0.05"/><circle cx="51" cy="730" r="2" fill="#111110" fill-opacity="0.05"/><circle cx="115" cy="730" r="2" fill="#111110" fill-opacity="0.05"/><circle cx="179" cy="730" r="2" fill="#111110" fill-opacity="0.05"/><circle cx="243" cy="730" r="2" fill="#111110" fill-opacity="0.05"/><circle cx="307" cy="730" r="2" fill="#111110" fill-opacity="0.05"/><circle cx="371" cy="730" r="2" fill="#111110" fill-opacity="0.05"/><circle cx="435" cy="730" r="2" fill="#111110" fill-opacity="0.05"/><circle cx="499" cy="730" r="2" fill="#111110" fill-opacity="0.05"/><circle cx="563" cy="730" r="2" fill="#111110" fill-opacity="0.05"/><circle cx="627" cy="730" r="2" fill="#111110" fill-opacity="0.05"/><circle cx="691" cy="730" r="2" fill="#111110" fill-opacity="0.05"/><circle cx="755" cy="730" r="2" fill="#111110" fill-opacity="0.05"/><circle cx="819" cy="730" r="2" fill="#111110" fill-opacity="0.05"/><circle cx="883" cy="730" r="2" fill="#111110" fill-opacity="0.05"/><circle cx="947" cy="730" r="2" fill="#111110" fill-opacity="0.05"/><circle cx="1011" cy="730" r="2" fill="#111110" fill-opacity="0.05"/><circle cx="1075" cy="730" r="2" fill="#111110" fill-opacity="0.05"/><circle cx="1139" cy="730" r="2" fill="#111110" fill-opacity="0.05"/><line x1="454" y1="340" x2="901" y2="340" stroke="#111110" stroke-width="2" stroke-opacity="0.12" transform="rotate(29 677 386)"/><line x1="454" y1="386" x2="901" y2="386" stroke="#111110" stroke-width="2" stroke-opacity="0.12" transform="rotate(29 677 386)"/><line x1="454" y1="432" x2="901" y2="432" stroke="#111110" stroke-width="2" stroke-opacity="0.12" transform="rotate(29 677 386)"/><circle cx="677" cy="386" r="112" fill="none" stroke="#d97706" stroke-width="3" stroke-opacity="0.7"/><circle cx="677" cy="386" r="9" fill="#d97706"/></svg>