<svg xmlns="http://www.w3.org/2000/svg" viewBox="0 0 1200 750" width="1200" height="750" role="img"><rect width="1200" height="750" fill="#fbfaf7"/><circle cx="383" cy="500" r="193" fill="#d97706" fill-opacity="0.10"/><circle cx="55" cy="90" r="2" fill="#111110" fill-opacity="0.05"/><circle cx="119" cy="90" r="2" fill="#111110" fill-opacity="0.05"/><circle cx="183" cy="90" r="2" fill="#111110" fill-opacity="0.05"/><circle cx="247" cy="90" r="2" fill="#111110" fill-opacity="0.05"/><circle cx="311" cy="90" r="2" fill="#111110" fill-opacity="0.05"/><circle cx="375" cy="90" r="2" fill="#111110" fill-opacity="0.05"/><circle cx="439" cy="90" r="2" fill="#111110" fill-opacity="0.05"/><circle cx="503" cy="90" r="2" fill="#111110" fill-opacity="0.05"/><circle cx="567" cy="90" r="2" fill="#111110" fill-opacity="0.05"/><circle cx="631" cy="90" r="2" fill="#111110" fill-opacity="0.05"/><circle cx="695" cy="90" r="2" fill="#111110" fill-opacity="0.05"/><circle cx="759" cy="90" r="2" fill="#111110" fill-opacity="0.05"/><circle cx="823" cy="90" r="2" fill="#111110" fill-opacity="0.05"/><circle cx="887" cy="90" r="2" fill="#111110" fill-opacity="0.05"/><circle cx="951" cy="90" r="2" fill="#111110" fill-opacity="0.05"/><circle cx="1015" cy="90" r="2" fill="#111110" fill-opacity="0.05"/><circle cx="1079" cy="90" r="2" fill="#111110" fill-opacity="0.05"/><circle cx="1143" cy="90" r="2" fill="#111110" fill-opacity="0.05"/><circle cx="55" cy="154" r="2" fill="#111110" fill-opacity="0.05"/><circle cx="119" cy="154" r="2" fill="#111110" fill-opacity="0.05"/><circle cx="183" cy="154" r="2" fill="#111110" fill-opacity="0.05"/><circle cx="247" cy="154" r="2" fill="#111110" fill-opacity="0.05"/><circle cx="311" cy="154" r="2" fill="#111110" fill-opacity="0.05"/><circle cx="375" cy="154" r="2" fill="#111110" fill-opacity="0.05"/><circle cx="439" cy="154" r="2" fill="#111110" fill-opacity="0.05"/><circle cx="503" cy="154" r="2" fill="#111110" fill-opacity="0.05"/><circle cx="567" cy="154" r="2" fill="#111110" fill-opacity="0.05"/><circle cx="631" cy="154" r="2" fill="#111110" fill-opacity="0.05"/><circle cx="695" cy="154" r="2" fill="#111110" fill-opacity="0.05"/><circle cx="759" cy="154" r="2" fill="#111110" fill-opacity="0.05"/><circle cx="823" cy="154" r="2" fill="#111110" fill-opacity="0.05"/><circle cx="887" cy="154" r="2" fill="#111110" fill-opacity="0.05"/><circle cx="951" cy="154" r="2" fill="#111110" fill-opacity="0.05"/><circle cx="1015" cy="154" r="2" fill="#111110" fill-opacity="0.05"/><circle cx="1079" cy="154" r="2" fill="#111110" fill-opacity="0.05"/><circle cx="1143" cy="154" r="2" fill="#111110" fill-opacity="0.05"/><circle cx="55" cy="218" r="2" fill="#111110" fill-opacity="0.05"/><circle cx="119" cy="218" r="2" fill="#111110" fill-opacity="0.05"/><circle cx="183" cy="218" r="2" fill="#111110" fill-opacity="0.05"/><circle cx="247" cy="218" r="2" fill="#111110" fill-opacity="0.05"/><circle cx="311" cy="218" r="2" fill="#111110" fill-opacity="0.05"/><circle cx="375" cy="218" r="2" fill="#111110" fill-opacity="0.05"/><circle cx="439" cy="218" r="2" fill="#111110" fill-opacity="0.05"/><circle cx="503" cy="218" r="2" fill="#111110" fill-opacity="0.05"/><circle cx="567" cy="218" r="2" fill="#111110" fill-opacity="0.05"/><circle cx="631" cy="218" r="2" fill="#111110" fill-opacity="0.05"/><circle cx="695" cy="218" r="2" fill="#111110" fill-opacity="0.05"/><circle cx="759" cy="218" r="2" fill="#111110" fill-opacity="0.05"/><circle cx="823" cy="218" r="2" fill="#111110" fill-opacity="0.05"/><circle cx="887" cy="218" r="2" fill="#111110" fill-opacity="0.05"/><circle cx="951" cy="218" r="2" fill="#111110" fill-opacity="0.05"/><circle cx="1015" cy="218" r="2" fill="#111110" fill-opacity="0.05"/><circle cx="1079" cy="218" r="2" fill="#111110" fill-opacity="0.05"/><circle cx="1143" cy="218" r="2" fill="#111110" fill-opacity="0.05"/><circle cx="55" cy="282" r="2" fill="#111110" fill-opacity="0.05"/><circle cx="119" cy="282" r="2" fill="#111110" fill-opacity="0.05"/><circle cx="183" cy="282" r="2" fill="#111110" fill-opacity="0.05"/><circle cx="247" cy="282" r="2" fill="#111110" fill-opacity="0.05"/><circle cx="311" cy="282" r="2" fill="#111110" fill-opacity="0.05"/><circle cx="375" cy="282" r="2" fill="#111110" fill-opacity="0.05"/><circle cx="439" cy="282" r="2" fill="#111110" fill-opacity="0.05"/><circle cx="503" cy="282" r="2" fill="#111110" fill-opacity="0.05"/><circle cx="567" cy="282" r="2" fill="#111110" fill-opacity="0.05"/><circle cx="631" cy="282" r="2" fill="#111110" fill-opacity="0.05"/><circle cx="695" cy="282" r="2" fill="#111110" fill-opacity="0.05"/><circle cx="759" cy="282" r="2" fill="#111110" fill-opacity="0.05"/><circle cx="823" cy="282" r="2" fill="#111110" fill-opacity="0.05"/><circle cx="887" cy="282" r="2" fill="#111110" fill-opacity="0.05"/><circle cx="951" cy="282" r="2" fill="#111110" fill-opacity="0.05"/><circle cx="1015" cy="282" r="2" fill="#111110" fill-opacity="0.05"/><circle cx="1079" cy="282" r="2" fill="#111110" fill-opacity="0.05"/><circle cx="1143" cy="282" r="2" fill="#111110" fill-opacity="0.05"/><circle cx="55" cy="346" r="2" fill="#111110" fill-opacity="0.05"/><circle cx="119" cy="346" r="2" fill="#111110" fill-opacity="0.05"/><circle cx="183" cy="346" r="2" fill="#111110" fill-opacity="0.05"/><circle cx="247" cy="346" r="2" fill="#111110" fill-opacity="0.05"/><circle cx="311" cy="346" r="2" fill="#111110" fill-opacity="0.05"/><circle cx="375" cy="346" r="2" fill="#111110" fill-opacity="0.05"/><circle cx="439" cy="346" r="2" fill="#111110" fill-opacity="0.05"/><circle cx="503" cy="346" r="2" fill="#111110" fill-opacity="0.05"/><circle cx="567" cy="346" r="2" fill="#111110" fill-opacity="0.05"/><circle cx="631" cy="346" r="2" fill="#111110" fill-opacity="0.05"/><circle cx="695" cy="346" r="2" fill="#111110" fill-opacity="0.05"/><circle cx="759" cy="346" r="2" fill="#111110" fill-opacity="0.05"/><circle cx="823" cy="346" r="2" fill="#111110" fill-opacity="0.05"/><circle cx="887" cy="346" r="2" fill="#111110" fill-opacity="0.05"/><circle cx="951" cy="346" r="2" fill="#111110" fill-opacity="0.05"/><circle cx="1015" cy="346" r="2" fill="#111110" fill-opacity="0.05"/><circle cx="1079" cy="346" r="2" fill="#111110" fill-opacity="0.05"/><circle cx="1143" cy="346" r="2" fill="#111110" fill-opacity="0.05"/><circle cx="55" cy="410" r="2" fill="#111110" fill-opacity="0.05"/><circle cx="119" cy="410" r="2" fill="#111110" fill-opacity="0.05"/><circle cx="183" cy="410" r="2" fill="#111110" fill-opacity="0.05"/><circle cx="247" cy="410" r="2" fill="#111110" fill-opacity="0.05"/><circle cx="311" cy="410" r="2" fill="#111110" fill-opacity="0.05"/><circle cx="375" cy="410" r="2" fill="#111110" fill-opacity="0.05"/><circle cx="439" cy="410" r="2" fill="#111110" fill-opacity="0.05"/><circle cx="503" cy="410" r="2" fill="#111110" fill-opacity="0.05"/><circle cx="567" cy="410" r="2" fill="#111110" fill-opacity="0.05"/><circle cx="631" cy="410" r="2" fill="#111110" fill-opacity="0.05"/><circle cx="695" cy="410" r="2" fill="#111110" fill-opacity="0.05"/><circle cx="759" cy="410" r="2" fill="#111110" fill-opacity="0.05"/><circle cx="823" cy="410" r="2" fill="#111110" fill-opacity="0.05"/><circle cx="887" cy="410" r="2" fill="#111110" fill-opacity="0.05"/><circle cx="951" cy="410" r="2" fill="#111110" fill-opacity="0.05"/><circle cx="1015" cy="410" r="2" fill="#111110" fill-opacity="0.05"/><circle cx="1079" cy="410" r="2" fill="#111110" fill-opacity="0.05"/><circle cx="1143" cy="410" r="2" fill="#111110" fill-opacity="0.05"/><circle cx="55" cy="474" r="2" fill="#111110" fill-opacity="0.05"/><circle cx="119" cy="474" r="2" fill="#111110" fill-opacity="0.05"/><circle cx="183" cy="474" r="2" fill="#111110" fill-opacity="0.05"/><circle cx="247" cy="474" r="2" fill="#111110" fill-opacity="0.05"/><circle cx="311" cy="474" r="2" fill="#111110" fill-opacity="0.05"/><circle cx="375" cy="474" r="2" fill="#111110" fill-opacity="0.05"/><circle cx="439" cy="474" r="2" fill="#111110" fill-opacity="0.05"/><circle cx="503" cy="474" r="2" fill="#111110" fill-opacity="0.05"/><circle cx="567" cy="474" r="2" fill="#111110" fill-opacity="0.05"/><circle cx="631" cy="474" r="2" fill="#111110" fill-opacity="0.05"/><circle cx="695" cy="474" r="2" fill="#111110" fill-opacity="0.05"/><circle cx="759" cy="474" r="2" fill="#111110" fill-opacity="0.05"/><circle cx="823" cy="474" r="2" fill="#111110" fill-opacity="0.05"/><circle cx="887" cy="474" r="2" fill="#111110" fill-opacity="0.05"/><circle cx="951" cy="474" r="2" fill="#111110" fill-opacity="0.05"/><circle cx="1015" cy="474" r="2" fill="#111110" fill-opacity="0.05"/><circle cx="1079" cy="474" r="2" fill="#111110" fill-opacity="0.05"/><circle cx="1143" cy="474" r="2" fill="#111110" fill-opacity="0.05"/><circle cx="55" cy="538" r="2" fill="#111110" fill-opacity="0.05"/><circle cx="119" cy="538" r="2" fill="#111110" fill-opacity="0.05"/><circle cx="183" cy="538" r="2" fill="#111110" fill-opacity="0.05"/><circle cx="247" cy="538" r="2" fill="#111110" fill-opacity="0.05"/><circle cx="311" cy="538" r="2" fill="#111110" fill-opacity="0.05"/><circle cx="375" cy="538" r="2" fill="#111110" fill-opacity="0.05"/><circle cx="439" cy="538" r="2" fill="#111110" fill-opacity="0.05"/><circle cx="503" cy="538" r="2" fill="#111110" fill-opacity="0.05"/><circle cx="567" cy="538" r="2" fill="#111110" fill-opacity="0.05"/><circle cx="631" cy="538" r="2" fill="#111110" fill-opacity="0.05"/><circle cx="695" cy="538" r="2" fill="#111110" fill-opacity="0.05"/><circle cx="759" cy="538" r="2" fill="#111110" fill-opacity="0.05"/><circle cx="823" cy="538" r="2" fill="#111110" fill-opacity="0.05"/><circle cx="887" cy="538" r="2" fill="#111110" fill-opacity="0.05"/><circle cx="951" cy="538" r="2" fill="#111110" fill-opacity="0.05"/><circle cx="1015" cy="538" r="2" fill="#111110" fill-opacity="0.05"/><circle cx="1079" cy="538" r="2" fill="#111110" fill-opacity="0.05"/><circle cx="1143" cy="538" r="2" fill="#111110" fill-opacity="0.05"/><circle cx="55" cy="602" r="2" fill="#111110" fill-opacity="0.05"/><circle cx="119" cy="602" r="2" fill="#111110" fill-opacity="0.05"/><circle cx="183" cy="602" r="2" fill="#111110" fill-opacity="0.05"/><circle cx="247" cy="602" r="2" fill="#111110" fill-opacity="0.05"/><circle cx="311" cy="602" r="2" fill="#111110" fill-opacity="0.05"/><circle cx="375" cy="602" r="2" fill="#111110" fill-opacity="0.05"/><circle cx="439" cy="602" r="2" fill="#111110" fill-opacity="0.05"/><circle cx="503" cy="602" r="2" fill="#111110" fill-opacity="0.05"/><circle cx="567" cy="602" r="2" fill="#111110" fill-opacity="0.05"/><circle cx="631" cy="602" r="2" fill="#111110" fill-opacity="0.05"/><circle cx="695" cy="602" r="2" fill="#111110" fill-opacity="0.05"/><circle cx="759" cy="602" r="2" fill="#111110" fill-opacity="0.05"/><circle cx="823" cy="602" r="2" fill="#111110" fill-opacity="0.05"/><circle cx="887" cy="602" r="2" fill="#111110" fill-opacity="0.05"/><circle cx="951" cy="602" r="2" fill="#111110" fill-opacity="0.05"/><circle cx="1015" cy="602" r="2" fill="#111110" fill-opacity="0.05"/><circle cx="1079" cy="602" r="2" fill="#111110" fill-opacity="0.05"/><circle cx="1143" cy="602" r="2" fill="#111110" fill-opacity="0.05"/><circle cx="55" cy="666" r="2" fill="#111110" fill-opacity="0.05"/><circle cx="119" cy="666" r="2" fill="#111110" fill-opacity="0.05"/><circle cx="183" cy="666" r="2" fill="#111110" fill-opacity="0.05"/><circle cx="247" cy="666" r="2" fill="#111110" fill-opacity="0.05"/><circle cx="311" cy="666" r="2" fill="#111110" fill-opacity="0.05"/><circle cx="375" cy="666" r="2" fill="#111110" fill-opacity="0.05"/><circle cx="439" cy="666" r="2" fill="#111110" fill-opacity="0.05"/><circle cx="503" cy="666" r="2" fill="#111110" fill-opacity="0.05"/><circle cx="567" cy="666" r="2" fill="#111110" fill-opacity="0.05"/><circle cx="631" cy="666" r="2" fill="#111110" fill-opacity="0.05"/><circle cx="695" cy="666" r="2" fill="#111110" fill-opacity="0.05"/><circle cx="759" cy="666" r="2" fill="#111110" fill-opacity="0.05"/><circle cx="823" cy="666" r="2" fill="#111110" fill-opacity="0.05"/><circle cx="887" cy="666" r="2" fill="#111110" fill-opacity="0.05"/><circle cx="951" cy="666" r="2" fill="#111110" fill-opacity="0.05"/><circle cx="1015" cy="666" r="2" fill="#111110" fill-opacity="0.05"/><circle cx="1079" cy="666" r="2" fill="#111110" fill-opacity="0.05"/><circle cx="1143" cy="666" r="2" fill="#111110" fill-opacity="0.05"/><circle cx="55" cy="730" r="2" fill="#111110" fill-opacity="0.05"/><circle cx="119" cy="730" r="2" fill="#111110" fill-opacity="0.05"/><circle cx="183" cy="730" r="2" fill="#111110" fill-opacity="0.05"/><circle cx="247" cy="730" r="2" fill="#111110" fill-opacity="0.05"/><circle cx="311" cy="730" r="2" fill="#111110" fill-opacity="0.05"/><circle cx="375" cy="730" r="2" fill="#111110" fill-opacity="0.05"/><circle cx="439" cy="730" r="2" fill="#111110" fill-opacity="0.05"/><circle cx="503" cy="730" r="2" fill="#111110" fill-opacity="0.05"/><circle cx="567" cy="730" r="2" fill="#111110" fill-opacity="0.05"/><circle cx="631" cy="730" r="2" fill="#111110" fill-opacity="0.05"/><circle cx="695" cy="730" r="2" fill="#111110" fill-opacity="0.05"/><circle cx="759" cy="730" r="2" fill="#111110" fill-opacity="0.05"/><circle cx="823" cy="730" r="2" fill="#111110" fill-opacity="0.05"/><circle cx="887" cy="730" r="2" fill="#111110" fill-opacity="0.05"/><circle cx="951" cy="730" r="2" fill="#111110" fill-opacity="0.05"/><circle cx="1015" cy="730" r="2" fill="#111110" fill-opacity="0.05"/><circle cx="1079" cy="730" r="2" fill="#111110" fill-opacity="0.05"/><circle cx="1143" cy="730" r="2" fill="#111110" fill-opacity="0.05"/><line x1="171" y1="454" x2="595" y2="454" stroke="#111110" stroke-width="2" stroke-opacity="0.12" transform="rotate(16 383 500)"/><line x1="171" y1="500" x2="595" y2="500" stroke="#111110" stroke-width="2" stroke-opacity="0.12" transform="rotate(16 383 500)"/><line x1="171" y1="546" x2="595" y2="546" stroke="#111110" stroke-width="2" stroke-opacity="0.12" transform="rotate(16 383 500)"/><circle cx="383" cy="500" r="106" fill="none" stroke="#d97706" stroke-width="3" stroke-opacity="0.7"/><circle cx="383" cy="500" r="9" fill="#d97706"/></svg>