<svg xmlns="http://www.w3.org/2000/svg" viewBox="0 0 1200 750" width="1200" height="750" role="img"><rect width="1200" height="750" fill="#fbfaf7"/><circle cx="709" cy="496" r="242" fill="#2563eb" fill-opacity="0.10"/><circle cx="50" cy="90" r="2" fill="#111110" fill-opacity="0.05"/><circle cx="114" cy="90" r="2" fill="#111110" fill-opacity="0.05"/><circle cx="178" cy="90" r="2" fill="#111110" fill-opacity="0.05"/><circle cx="242" cy="90" r="2" fill="#111110" fill-opacity="0.05"/><circle cx="306" cy="90" r="2" fill="#111110" fill-opacity="0.05"/><circle cx="370" cy="90" r="2" fill="#111110" fill-opacity="0.05"/><circle cx="434" cy="90" r="2" fill="#111110" fill-opacity="0.05"/><circle cx="498" cy="90" r="2" fill="#111110" fill-opacity="0.05"/><circle cx="562" cy="90" r="2" fill="#111110" fill-opacity="0.05"/><circle cx="626" cy="90" r="2" fill="#111110" fill-opacity="0.05"/><circle cx="690" cy="90" r="2" fill="#111110" fill-opacity="0.05"/><circle cx="754" cy="90" r="2" fill="#111110" fill-opacity="0.05"/><circle cx="818" cy="90" r="2" fill="#111110" fill-opacity="0.05"/><circle cx="882" cy="90" r="2" fill="#111110" fill-opacity="0.05"/><circle cx="946" cy="90" r="2" fill="#111110" fill-opacity="0.05"/><circle cx="1010" cy="90" r="2" fill="#111110" fill-opacity="0.05"/><circle cx="1074" cy="90" r="2" fill="#111110" fill-opacity="0.05"/><circle cx="1138" cy="90" r="2" fill="#111110" fill-opacity="0.05"/><circle cx="50" cy="154" r="2" fill="#111110" fill-opacity="0.05"/><circle cx="114" cy="154" r="2" fill="#111110" fill-opacity="0.05"/><circle cx="178" cy="154" r="2" fill="#111110" fill-opacity="0.05"/><circle cx="242" cy="154" r="2" fill="#111110" fill-opacity="0.05"/><circle cx="306" cy="154" r="2" fill="#111110" fill-opacity="0.05"/><circle cx="370" cy="154" r="2" fill="#111110" fill-opacity="0.05"/><circle cx="434" cy="154" r="2" fill="#111110" fill-opacity="0.05"/><circle cx="498" cy="154" r="2" fill="#111110" fill-opacity="0.05"/><circle cx="562" cy="154" r="2" fill="#111110" fill-opacity="0.05"/><circle cx="626" cy="154" r="2" fill="#111110" fill-opacity="0.05"/><circle cx="690" cy="154" r="2" fill="#111110" fill-opacity="0.05"/><circle cx="754" cy="154" r="2" fill="#111110" fill-opacity="0.05"/><circle cx="818" cy="154" r="2" fill="#111110" fill-opacity="0.05"/><circle cx="882" cy="154" r="2" fill="#111110" fill-opacity="0.05"/><circle cx="946" cy="154" r="2" fill="#111110" fill-opacity="0.05"/><circle cx="1010" cy="154" r="2" fill="#111110" fill-opacity="0.05"/><circle cx="1074" cy="154" r="2" fill="#111110" fill-opacity="0.05"/><circle cx="1138" cy="154" r="2" fill="#111110" fill-opacity="0.05"/><circle cx="50" cy="218" r="2" fill="#111110" fill-opacity="0.05"/><circle cx="114" cy="218" r="2" fill="#111110" fill-opacity="0.05"/><circle cx="178" cy="218" r="2" fill="#111110" fill-opacity="0.05"/><circle cx="242" cy="218" r="2" fill="#111110" fill-opacity="0.05"/><circle cx="306" cy="218" r="2" fill="#111110" fill-opacity="0.05"/><circle cx="370" cy="218" r="2" fill="#111110" fill-opacity="0.05"/><circle cx="434" cy="218" r="2" fill="#111110" fill-opacity="0.05"/><circle cx="498" cy="218" r="2" fill="#111110" fill-opacity="0.05"/><circle cx="562" cy="218" r="2" fill="#111110" fill-opacity="0.05"/><circle cx="626" cy="218" r="2" fill="#111110" fill-opacity="0.05"/><circle cx="690" cy="218" r="2" fill="#111110" fill-opacity="0.05"/><circle cx="754" cy="218" r="2" fill="#111110" fill-opacity="0.05"/><circle cx="818" cy="218" r="2" fill="#111110" fill-opacity="0.05"/><circle cx="882" cy="218" r="2" fill="#111110" fill-opacity="0.05"/><circle cx="946" cy="218" r="2" fill="#111110" fill-opacity="0.05"/><circle cx="1010" cy="218" r="2" fill="#111110" fill-opacity="0.05"/><circle cx="1074" cy="218" r="2" fill="#111110" fill-opacity="0.05"/><circle cx="1138" cy="218" r="2" fill="#111110" fill-opacity="0.05"/><circle cx="50" cy="282" r="2" fill="#111110" fill-opacity="0.05"/><circle cx="114" cy="282" r="2" fill="#111110" fill-opacity="0.05"/><circle cx="178" cy="282" r="2" fill="#111110" fill-opacity="0.05"/><circle cx="242" cy="282" r="2" fill="#111110" fill-opacity="0.05"/><circle cx="306" cy="282" r="2" fill="#111110" fill-opacity="0.05"/><circle cx="370" cy="282" r="2" fill="#111110" fill-opacity="0.05"/><circle cx="434" cy="282" r="2" fill="#111110" fill-opacity="0.05"/><circle cx="498" cy="282" r="2" fill="#111110" fill-opacity="0.05"/><circle cx="562" cy="282" r="2" fill="#111110" fill-opacity="0.05"/><circle cx="626" cy="282" r="2" fill="#111110" fill-opacity="0.05"/><circle cx="690" cy="282" r="2" fill="#111110" fill-opacity="0.05"/><circle cx="754" cy="282" r="2" fill="#111110" fill-opacity="0.05"/><circle cx="818" cy="282" r="2" fill="#111110" fill-opacity="0.05"/><circle cx="882" cy="282" r="2" fill="#111110" fill-opacity="0.05"/><circle cx="946" cy="282" r="2" fill="#111110" fill-opacity="0.05"/><circle cx="1010" cy="282" r="2" fill="#111110" fill-opacity="0.05"/><circle cx="1074" cy="282" r="2" fill="#111110" fill-opacity="0.05"/><circle cx="1138" cy="282" r="2" fill="#111110" fill-opacity="0.05"/><circle cx="50" cy="346" r="2" fill="#111110" fill-opacity="0.05"/><circle cx="114" cy="346" r="2" fill="#111110" fill-opacity="0.05"/><circle cx="178" cy="346" r="2" fill="#111110" fill-opacity="0.05"/><circle cx="242" cy="346" r="2" fill="#111110" fill-opacity="0.05"/><circle cx="306" cy="346" r="2" fill="#111110" fill-opacity="0.05"/><circle cx="370" cy="346" r="2" fill="#111110" fill-opacity="0.05"/><circle cx="434" cy="346" r="2" fill="#111110" fill-opacity="0.05"/><circle cx="498" cy="346" r="2" fill="#111110" fill-opacity="0.05"/><circle cx="562" cy="346" r="2" fill="#111110" fill-opacity="0.05"/><circle cx="626" cy="346" r="2" fill="#111110" fill-opacity="0.05"/><circle cx="690" cy="346" r="2" fill="#111110" fill-opacity="0.05"/><circle cx="754" cy="346" r="2" fill="#111110" fill-opacity="0.05"/><circle cx="818" cy="346" r="2" fill="#111110" fill-opacity="0.05"/><circle cx="882" cy="346" r="2" fill="#111110" fill-opacity="0.05"/><circle cx="946" cy="346" r="2" fill="#111110" fill-opacity="0.05"/><circle cx="1010" cy="346" r="2" fill="#111110" fill-opacity="0.05"/><circle cx="1074" cy="346" r="2" fill="#111110" fill-opacity="0.05"/><circle cx="1138" cy="346" r="2" fill="#111110" fill-opacity="0.05"/><circle cx="50" cy="410" r="2" fill="#111110" fill-opacity="0.05"/><circle cx="114" cy="410" r="2" fill="#111110" fill-opacity="0.05"/><circle cx="178" cy="410" r="2" fill="#111110" fill-opacity="0.05"/><circle cx="242" cy="410" r="2" fill="#111110" fill-opacity="0.05"/><circle cx="306" cy="410" r="2" fill="#111110" fill-opacity="0.05"/><circle cx="370" cy="410" r="2" fill="#111110" fill-opacity="0.05"/><circle cx="434" cy="410" r="2" fill="#111110" fill-opacity="0.05"/><circle cx="498" cy="410" r="2" fill="#111110" fill-opacity="0.05"/><circle cx="562" cy="410" r="2" fill="#111110" fill-opacity="0.05"/><circle cx="626" cy="410" r="2" fill="#111110" fill-opacity="0.05"/><circle cx="690" cy="410" r="2" fill="#111110" fill-opacity="0.05"/><circle cx="754" cy="410" r="2" fill="#111110" fill-opacity="0.05"/><circle cx="818" cy="410" r="2" fill="#111110" fill-opacity="0.05"/><circle cx="882" cy="410" r="2" fill="#111110" fill-opacity="0.05"/><circle cx="946" cy="410" r="2" fill="#111110" fill-opacity="0.05"/><circle cx="1010" cy="410" r="2" fill="#111110" fill-opacity="0.05"/><circle cx="1074" cy="410" r="2" fill="#111110" fill-opacity="0.05"/><circle cx="1138" cy="410" r="2" fill="#111110" fill-opacity="0.05"/><circle cx="50" cy="474" r="2" fill="#111110" fill-opacity="0.05"/><circle cx="114" cy="474" r="2" fill="#111110" fill-opacity="0.05"/><circle cx="178" cy="474" r="2" fill="#111110" fill-opacity="0.05"/><circle cx="242" cy="474" r="2" fill="#111110" fill-opacity="0.05"/><circle cx="306" cy="474" r="2" fill="#111110" fill-opacity="0.05"/><circle cx="370" cy="474" r="2" fill="#111110" fill-opacity="0.05"/><circle cx="434" cy="474" r="2" fill="#111110" fill-opacity="0.05"/><circle cx="498" cy="474" r="2" fill="#111110" fill-opacity="0.05"/><circle cx="562" cy="474" r="2" fill="#111110" fill-opacity="0.05"/><circle cx="626" cy="474" r="2" fill="#111110" fill-opacity="0.05"/><circle cx="690" cy="474" r="2" fill="#111110" fill-opacity="0.05"/><circle cx="754" cy="474" r="2" fill="#111110" fill-opacity="0.05"/><circle cx="818" cy="474" r="2" fill="#111110" fill-opacity="0.05"/><circle cx="882" cy="474" r="2" fill="#111110" fill-opacity="0.05"/><circle cx="946" cy="474" r="2" fill="#111110" fill-opacity="0.05"/><circle cx="1010" cy="474" r="2" fill="#111110" fill-opacity="0.05"/><circle cx="1074" cy="474" r="2" fill="#111110" fill-opacity="0.05"/><circle cx="1138" cy="474" r="2" fill="#111110" fill-opacity="0.05"/><circle cx="50" cy="538" r="2" fill="#111110" fill-opacity="0.05"/><circle cx="114" cy="538" r="2" fill="#111110" fill-opacity="0.05"/><circle cx="178" cy="538" r="2" fill="#111110" fill-opacity="0.05"/><circle cx="242" cy="538" r="2" fill="#111110" fill-opacity="0.05"/><circle cx="306" cy="538" r="2" fill="#111110" fill-opacity="0.05"/><circle cx="370" cy="538" r="2" fill="#111110" fill-opacity="0.05"/><circle cx="434" cy="538" r="2" fill="#111110" fill-opacity="0.05"/><circle cx="498" cy="538" r="2" fill="#111110" fill-opacity="0.05"/><circle cx="562" cy="538" r="2" fill="#111110" fill-opacity="0.05"/><circle cx="626" cy="538" r="2" fill="#111110" fill-opacity="0.05"/><circle cx="690" cy="538" r="2" fill="#111110" fill-opacity="0.05"/><circle cx="754" cy="538" r="2" fill="#111110" fill-opacity="0.05"/><circle cx="818" cy="538" r="2" fill="#111110" fill-opacity="0.05"/><circle cx="882" cy="538" r="2" fill="#111110" fill-opacity="0.05"/><circle cx="946" cy="538" r="2" fill="#111110" fill-opacity="0.05"/><circle cx="1010" cy="538" r="2" fill="#111110" fill-opacity="0.05"/><circle cx="1074" cy="538" r="2" fill="#111110" fill-opacity="0.05"/><circle cx="1138" cy="538" r="2" fill="#111110" fill-opacity="0.05"/><circle cx="50" cy="602" r="2" fill="#111110" fill-opacity="0.05"/><circle cx="114" cy="602" r="2" fill="#111110" fill-opacity="0.05"/><circle cx="178" cy="602" r="2" fill="#111110" fill-opacity="0.05"/><circle cx="242" cy="602" r="2" fill="#111110" fill-opacity="0.05"/><circle cx="306" cy="602" r="2" fill="#111110" fill-opacity="0.05"/><circle cx="370" cy="602" r="2" fill="#111110" fill-opacity="0.05"/><circle cx="434" cy="602" r="2" fill="#111110" fill-opacity="0.05"/><circle cx="498" cy="602" r="2" fill="#111110" fill-opacity="0.05"/><circle cx="562" cy="602" r="2" fill="#111110" fill-opacity="0.05"/><circle cx="626" cy="602" r="2" fill="#111110" fill-opacity="0.05"/><circle cx="690" cy="602" r="2" fill="#111110" fill-opacity="0.05"/><circle cx="754" cy="602" r="2" fill="#111110" fill-opacity="0.05"/><circle cx="818" cy="602" r="2" fill="#111110" fill-opacity="0.05"/><circle cx="882" cy="602" r="2" fill="#111110" fill-opacity="0.05"/><circle cx="946" cy="602" r="2" fill="#111110" fill-opacity="0.05"/><circle cx="1010" cy="602" r="2" fill="#111110" fill-opacity="0.05"/><circle cx="1074" cy="602" r="2" fill="#111110" fill-opacity="0.05"/><circle cx="1138" cy="602" r="2" fill="#111110" fill-opacity="0.05"/><circle cx="50" cy="666" r="2" fill="#111110" fill-opacity="0.05"/><circle cx="114" cy="666" r="2" fill="#111110" fill-opacity="0.05"/><circle cx="178" cy="666" r="2" fill="#111110" fill-opacity="0.05"/><circle cx="242" cy="666" r="2" fill="#111110" fill-opacity="0.05"/><circle cx="306" cy="666" r="2" fill="#111110" fill-opacity="0.05"/><circle cx="370" cy="666" r="2" fill="#111110" fill-opacity="0.05"/><circle cx="434" cy="666" r="2" fill="#111110" fill-opacity="0.05"/><circle cx="498" cy="666" r="2" fill="#111110" fill-opacity="0.05"/><circle cx="562" cy="666" r="2" fill="#111110" fill-opacity="0.05"/><circle cx="626" cy="666" r="2" fill="#111110" fill-opacity="0.05"/><circle cx="690" cy="666" r="2" fill="#111110" fill-opacity="0.05"/><circle cx="754" cy="666" r="2" fill="#111110" fill-opacity="0.05"/><circle cx="818" cy="666" r="2" fill="#111110" fill-opacity="0.05"/><circle cx="882" cy="666" r="2" fill="#111110" fill-opacity="0.05"/><circle cx="946" cy="666" r="2" fill="#111110" fill-opacity="0.05"/><circle cx="1010" cy="666" r="2" fill="#111110" fill-opacity="0.05"/><circle cx="1074" cy="666" r="2" fill="#111110" fill-opacity="0.05"/><circle cx="1138" cy="666" r="2" fill="#111110" fill-opacity="0.05"/><circle cx="50" cy="730" r="2" fill="#111110" fill-opacity="0.05"/><circle cx="114" cy="730" r="2" fill="#111110" fill-opacity="0.05"/><circle cx="178" cy="730" r="2" fill="#111110" fill-opacity="0.05"/><circle cx="242" cy="730" r="2" fill="#111110" fill-opacity="0.05"/><circle cx="306" cy="730" r="2" fill="#111110" fill-opacity="0.05"/><circle cx="370" cy="730" r="2" fill="#111110" fill-opacity="0.05"/><circle cx="434" cy="730" r="2" fill="#111110" fill-opacity="0.05"/><circle cx="498" cy="730" r="2" fill="#111110" fill-opacity="0.05"/><circle cx="562" cy="730" r="2" fill="#111110" fill-opacity="0.05"/><circle cx="626" cy="730" r="2" fill="#111110" fill-opacity="0.05"/><circle cx="690" cy="730" r="2" fill="#111110" fill-opacity="0.05"/><circle cx="754" cy="730" r="2" fill="#111110" fill-opacity="0.05"/><circle cx="818" cy="730" r="2" fill="#111110" fill-opacity="0.05"/><circle cx="882" cy="730" r="2" fill="#111110" fill-opacity="0.05"/><circle cx="946" cy="730" r="2" fill="#111110" fill-opacity="0.05"/><circle cx="1010" cy="730" r="2" fill="#111110" fill-opacity="0.05"/><circle cx="1074" cy="730" r="2" fill="#111110" fill-opacity="0.05"/><circle cx="1138" cy="730" r="2" fill="#111110" fill-opacity="0.05"/><circle cx="709" cy="496" r="109" fill="none" stroke="#2563eb" stroke-width="2.5" stroke-opacity="0.60"/><circle cx="709" cy="496" r="158" fill="none" stroke="#2563eb" stroke-width="2.5" stroke-opacity="0.50"/><circle cx="709" cy="496" r="206" fill="none" stroke="#2563eb" stroke-width="2.5" stroke-opacity="0.40"/><circle cx="709" cy="496" r="254" fill="none" stroke="#2563eb" stroke-width="2.5" stroke-opacity="0.30"/><circle cx="709" cy="496" r="9" fill="#2563eb"/></svg>