<svg xmlns="http://www.w3.org/2000/svg" viewBox="0 0 1200 750" width="1200" height="750" role="img"><rect width="1200" height="750" fill="#fbfaf7"/><circle cx="660" cy="324" r="238" fill="#0891b2" fill-opacity="0.10"/><circle cx="73" cy="90" r="2" fill="#111110" fill-opacity="0.05"/><circle cx="137" cy="90" r="2" fill="#111110" fill-opacity="0.05"/><circle cx="201" cy="90" r="2" fill="#111110" fill-opacity="0.05"/><circle cx="265" cy="90" r="2" fill="#111110" fill-opacity="0.05"/><circle cx="329" cy="90" r="2" fill="#111110" fill-opacity="0.05"/><circle cx="393" cy="90" r="2" fill="#111110" fill-opacity="0.05"/><circle cx="457" cy="90" r="2" fill="#111110" fill-opacity="0.05"/><circle cx="521" cy="90" r="2" fill="#111110" fill-opacity="0.05"/><circle cx="585" cy="90" r="2" fill="#111110" fill-opacity="0.05"/><circle cx="649" cy="90" r="2" fill="#111110" fill-opacity="0.05"/><circle cx="713" cy="90" r="2" fill="#111110" fill-opacity="0.05"/><circle cx="777" cy="90" r="2" fill="#111110" fill-opacity="0.05"/><circle cx="841" cy="90" r="2" fill="#111110" fill-opacity="0.05"/><circle cx="905" cy="90" r="2" fill="#111110" fill-opacity="0.05"/><circle cx="969" cy="90" r="2" fill="#111110" fill-opacity="0.05"/><circle cx="1033" cy="90" r="2" fill="#111110" fill-opacity="0.05"/><circle cx="1097" cy="90" r="2" fill="#111110" fill-opacity="0.05"/><circle cx="1161" cy="90" r="2" fill="#111110" fill-opacity="0.05"/><circle cx="73" cy="154" r="2" fill="#111110" fill-opacity="0.05"/><circle cx="137" cy="154" r="2" fill="#111110" fill-opacity="0.05"/><circle cx="201" cy="154" r="2" fill="#111110" fill-opacity="0.05"/><circle cx="265" cy="154" r="2" fill="#111110" fill-opacity="0.05"/><circle cx="329" cy="154" r="2" fill="#111110" fill-opacity="0.05"/><circle cx="393" cy="154" r="2" fill="#111110" fill-opacity="0.05"/><circle cx="457" cy="154" r="2" fill="#111110" fill-opacity="0.05"/><circle cx="521" cy="154" r="2" fill="#111110" fill-opacity="0.05"/><circle cx="585" cy="154" r="2" fill="#111110" fill-opacity="0.05"/><circle cx="649" cy="154" r="2" fill="#111110" fill-opacity="0.05"/><circle cx="713" cy="154" r="2" fill="#111110" fill-opacity="0.05"/><circle cx="777" cy="154" r="2" fill="#111110" fill-opacity="0.05"/><circle cx="841" cy="154" r="2" fill="#111110" fill-opacity="0.05"/><circle cx="905" cy="154" r="2" fill="#111110" fill-opacity="0.05"/><circle cx="969" cy="154" r="2" fill="#111110" fill-opacity="0.05"/><circle cx="1033" cy="154" r="2" fill="#111110" fill-opacity="0.05"/><circle cx="1097" cy="154" r="2" fill="#111110" fill-opacity="0.05"/><circle cx="1161" cy="154" r="2" fill="#111110" fill-opacity="0.05"/><circle cx="73" cy="218" r="2" fill="#111110" fill-opacity="0.05"/><circle cx="137" cy="218" r="2" fill="#111110" fill-opacity="0.05"/><circle cx="201" cy="218" r="2" fill="#111110" fill-opacity="0.05"/><circle cx="265" cy="218" r="2" fill="#111110" fill-opacity="0.05"/><circle cx="329" cy="218" r="2" fill="#111110" fill-opacity="0.05"/><circle cx="393" cy="218" r="2" fill="#111110" fill-opacity="0.05"/><circle cx="457" cy="218" r="2" fill="#111110" fill-opacity="0.05"/><circle cx="521" cy="218" r="2" fill="#111110" fill-opacity="0.05"/><circle cx="585" cy="218" r="2" fill="#111110" fill-opacity="0.05"/><circle cx="649" cy="218" r="2" fill="#111110" fill-opacity="0.05"/><circle cx="713" cy="218" r="2" fill="#111110" fill-opacity="0.05"/><circle cx="777" cy="218" r="2" fill="#111110" fill-opacity="0.05"/><circle cx="841" cy="218" r="2" fill="#111110" fill-opacity="0.05"/><circle cx="905" cy="218" r="2" fill="#111110" fill-opacity="0.05"/><circle cx="969" cy="218" r="2" fill="#111110" fill-opacity="0.05"/><circle cx="1033" cy="218" r="2" fill="#111110" fill-opacity="0.05"/><circle cx="1097" cy="218" r="2" fill="#111110" fill-opacity="0.05"/><circle cx="1161" cy="218" r="2" fill="#111110" fill-opacity="0.05"/><circle cx="73" cy="282" r="2" fill="#111110" fill-opacity="0.05"/><circle cx="137" cy="282" r="2" fill="#111110" fill-opacity="0.05"/><circle cx="201" cy="282" r="2" fill="#111110" fill-opacity="0.05"/><circle cx="265" cy="282" r="2" fill="#111110" fill-opacity="0.05"/><circle cx="329" cy="282" r="2" fill="#111110" fill-opacity="0.05"/><circle cx="393" cy="282" r="2" fill="#111110" fill-opacity="0.05"/><circle cx="457" cy="282" r="2" fill="#111110" fill-opacity="0.05"/><circle cx="521" cy="282" r="2" fill="#111110" fill-opacity="0.05"/><circle cx="585" cy="282" r="2" fill="#111110" fill-opacity="0.05"/><circle cx="649" cy="282" r="2" fill="#111110" fill-opacity="0.05"/><circle cx="713" cy="282" r="2" fill="#111110" fill-opacity="0.05"/><circle cx="777" cy="282" r="2" fill="#111110" fill-opacity="0.05"/><circle cx="841" cy="282" r="2" fill="#111110" fill-opacity="0.05"/><circle cx="905" cy="282" r="2" fill="#111110" fill-opacity="0.05"/><circle cx="969" cy="282" r="2" fill="#111110" fill-opacity="0.05"/><circle cx="1033" cy="282" r="2" fill="#111110" fill-opacity="0.05"/><circle cx="1097" cy="282" r="2" fill="#111110" fill-opacity="0.05"/><circle cx="1161" cy="282" r="2" fill="#111110" fill-opacity="0.05"/><circle cx="73" cy="346" r="2" fill="#111110" fill-opacity="0.05"/><circle cx="137" cy="346" r="2" fill="#111110" fill-opacity="0.05"/><circle cx="201" cy="346" r="2" fill="#111110" fill-opacity="0.05"/><circle cx="265" cy="346" r="2" fill="#111110" fill-opacity="0.05"/><circle cx="329" cy="346" r="2" fill="#111110" fill-opacity="0.05"/><circle cx="393" cy="346" r="2" fill="#111110" fill-opacity="0.05"/><circle cx="457" cy="346" r="2" fill="#111110" fill-opacity="0.05"/><circle cx="521" cy="346" r="2" fill="#111110" fill-opacity="0.05"/><circle cx="585" cy="346" r="2" fill="#111110" fill-opacity="0.05"/><circle cx="649" cy="346" r="2" fill="#111110" fill-opacity="0.05"/><circle cx="713" cy="346" r="2" fill="#111110" fill-opacity="0.05"/><circle cx="777" cy="346" r="2" fill="#111110" fill-opacity="0.05"/><circle cx="841" cy="346" r="2" fill="#111110" fill-opacity="0.05"/><circle cx="905" cy="346" r="2" fill="#111110" fill-opacity="0.05"/><circle cx="969" cy="346" r="2" fill="#111110" fill-opacity="0.05"/><circle cx="1033" cy="346" r="2" fill="#111110" fill-opacity="0.05"/><circle cx="1097" cy="346" r="2" fill="#111110" fill-opacity="0.05"/><circle cx="1161" cy="346" r="2" fill="#111110" fill-opacity="0.05"/><circle cx="73" cy="410" r="2" fill="#111110" fill-opacity="0.05"/><circle cx="137" cy="410" r="2" fill="#111110" fill-opacity="0.05"/><circle cx="201" cy="410" r="2" fill="#111110" fill-opacity="0.05"/><circle cx="265" cy="410" r="2" fill="#111110" fill-opacity="0.05"/><circle cx="329" cy="410" r="2" fill="#111110" fill-opacity="0.05"/><circle cx="393" cy="410" r="2" fill="#111110" fill-opacity="0.05"/><circle cx="457" cy="410" r="2" fill="#111110" fill-opacity="0.05"/><circle cx="521" cy="410" r="2" fill="#111110" fill-opacity="0.05"/><circle cx="585" cy="410" r="2" fill="#111110" fill-opacity="0.05"/><circle cx="649" cy="410" r="2" fill="#111110" fill-opacity="0.05"/><circle cx="713" cy="410" r="2" fill="#111110" fill-opacity="0.05"/><circle cx="777" cy="410" r="2" fill="#111110" fill-opacity="0.05"/><circle cx="841" cy="410" r="2" fill="#111110" fill-opacity="0.05"/><circle cx="905" cy="410" r="2" fill="#111110" fill-opacity="0.05"/><circle cx="969" cy="410" r="2" fill="#111110" fill-opacity="0.05"/><circle cx="1033" cy="410" r="2" fill="#111110" fill-opacity="0.05"/><circle cx="1097" cy="410" r="2" fill="#111110" fill-opacity="0.05"/><circle cx="1161" cy="410" r="2" fill="#111110" fill-opacity="0.05"/><circle cx="73" cy="474" r="2" fill="#111110" fill-opacity="0.05"/><circle cx="137" cy="474" r="2" fill="#111110" fill-opacity="0.05"/><circle cx="201" cy="474" r="2" fill="#111110" fill-opacity="0.05"/><circle cx="265" cy="474" r="2" fill="#111110" fill-opacity="0.05"/><circle cx="329" cy="474" r="2" fill="#111110" fill-opacity="0.05"/><circle cx="393" cy="474" r="2" fill="#111110" fill-opacity="0.05"/><circle cx="457" cy="474" r="2" fill="#111110" fill-opacity="0.05"/><circle cx="521" cy="474" r="2" fill="#111110" fill-opacity="0.05"/><circle cx="585" cy="474" r="2" fill="#111110" fill-opacity="0.05"/><circle cx="649" cy="474" r="2" fill="#111110" fill-opacity="0.05"/><circle cx="713" cy="474" r="2" fill="#111110" fill-opacity="0.05"/><circle cx="777" cy="474" r="2" fill="#111110" fill-opacity="0.05"/><circle cx="841" cy="474" r="2" fill="#111110" fill-opacity="0.05"/><circle cx="905" cy="474" r="2" fill="#111110" fill-opacity="0.05"/><circle cx="969" cy="474" r="2" fill="#111110" fill-opacity="0.05"/><circle cx="1033" cy="474" r="2" fill="#111110" fill-opacity="0.05"/><circle cx="1097" cy="474" r="2" fill="#111110" fill-opacity="0.05"/><circle cx="1161" cy="474" r="2" fill="#111110" fill-opacity="0.05"/><circle cx="73" cy="538" r="2" fill="#111110" fill-opacity="0.05"/><circle cx="137" cy="538" r="2" fill="#111110" fill-opacity="0.05"/><circle cx="201" cy="538" r="2" fill="#111110" fill-opacity="0.05"/><circle cx="265" cy="538" r="2" fill="#111110" fill-opacity="0.05"/><circle cx="329" cy="538" r="2" fill="#111110" fill-opacity="0.05"/><circle cx="393" cy="538" r="2" fill="#111110" fill-opacity="0.05"/><circle cx="457" cy="538" r="2" fill="#111110" fill-opacity="0.05"/><circle cx="521" cy="538" r="2" fill="#111110" fill-opacity="0.05"/><circle cx="585" cy="538" r="2" fill="#111110" fill-opacity="0.05"/><circle cx="649" cy="538" r="2" fill="#111110" fill-opacity="0.05"/><circle cx="713" cy="538" r="2" fill="#111110" fill-opacity="0.05"/><circle cx="777" cy="538" r="2" fill="#111110" fill-opacity="0.05"/><circle cx="841" cy="538" r="2" fill="#111110" fill-opacity="0.05"/><circle cx="905" cy="538" r="2" fill="#111110" fill-opacity="0.05"/><circle cx="969" cy="538" r="2" fill="#111110" fill-opacity="0.05"/><circle cx="1033" cy="538" r="2" fill="#111110" fill-opacity="0.05"/><circle cx="1097" cy="538" r="2" fill="#111110" fill-opacity="0.05"/><circle cx="1161" cy="538" r="2" fill="#111110" fill-opacity="0.05"/><circle cx="73" cy="602" r="2" fill="#111110" fill-opacity="0.05"/><circle cx="137" cy="602" r="2" fill="#111110" fill-opacity="0.05"/><circle cx="201" cy="602" r="2" fill="#111110" fill-opacity="0.05"/><circle cx="265" cy="602" r="2" fill="#111110" fill-opacity="0.05"/><circle cx="329" cy="602" r="2" fill="#111110" fill-opacity="0.05"/><circle cx="393" cy="602" r="2" fill="#111110" fill-opacity="0.05"/><circle cx="457" cy="602" r="2" fill="#111110" fill-opacity="0.05"/><circle cx="521" cy="602" r="2" fill="#111110" fill-opacity="0.05"/><circle cx="585" cy="602" r="2" fill="#111110" fill-opacity="0.05"/><circle cx="649" cy="602" r="2" fill="#111110" fill-opacity="0.05"/><circle cx="713" cy="602" r="2" fill="#111110" fill-opacity="0.05"/><circle cx="777" cy="602" r="2" fill="#111110" fill-opacity="0.05"/><circle cx="841" cy="602" r="2" fill="#111110" fill-opacity="0.05"/><circle cx="905" cy="602" r="2" fill="#111110" fill-opacity="0.05"/><circle cx="969" cy="602" r="2" fill="#111110" fill-opacity="0.05"/><circle cx="1033" cy="602" r="2" fill="#111110" fill-opacity="0.05"/><circle cx="1097" cy="602" r="2" fill="#111110" fill-opacity="0.05"/><circle cx="1161" cy="602" r="2" fill="#111110" fill-opacity="0.05"/><circle cx="73" cy="666" r="2" fill="#111110" fill-opacity="0.05"/><circle cx="137" cy="666" r="2" fill="#111110" fill-opacity="0.05"/><circle cx="201" cy="666" r="2" fill="#111110" fill-opacity="0.05"/><circle cx="265" cy="666" r="2" fill="#111110" fill-opacity="0.05"/><circle cx="329" cy="666" r="2" fill="#111110" fill-opacity="0.05"/><circle cx="393" cy="666" r="2" fill="#111110" fill-opacity="0.05"/><circle cx="457" cy="666" r="2" fill="#111110" fill-opacity="0.05"/><circle cx="521" cy="666" r="2" fill="#111110" fill-opacity="0.05"/><circle cx="585" cy="666" r="2" fill="#111110" fill-opacity="0.05"/><circle cx="649" cy="666" r="2" fill="#111110" fill-opacity="0.05"/><circle cx="713" cy="666" r="2" fill="#111110" fill-opacity="0.05"/><circle cx="777" cy="666" r="2" fill="#111110" fill-opacity="0.05"/><circle cx="841" cy="666" r="2" fill="#111110" fill-opacity="0.05"/><circle cx="905" cy="666" r="2" fill="#111110" fill-opacity="0.05"/><circle cx="969" cy="666" r="2" fill="#111110" fill-opacity="0.05"/><circle cx="1033" cy="666" r="2" fill="#111110" fill-opacity="0.05"/><circle cx="1097" cy="666" r="2" fill="#111110" fill-opacity="0.05"/><circle cx="1161" cy="666" r="2" fill="#111110" fill-opacity="0.05"/><circle cx="73" cy="730" r="2" fill="#111110" fill-opacity="0.05"/><circle cx="137" cy="730" r="2" fill="#111110" fill-opacity="0.05"/><circle cx="201" cy="730" r="2" fill="#111110" fill-opacity="0.05"/><circle cx="265" cy="730" r="2" fill="#111110" fill-opacity="0.05"/><circle cx="329" cy="730" r="2" fill="#111110" fill-opacity="0.05"/><circle cx="393" cy="730" r="2" fill="#111110" fill-opacity="0.05"/><circle cx="457" cy="730" r="2" fill="#111110" fill-opacity="0.05"/><circle cx="521" cy="730" r="2" fill="#111110" fill-opacity="0.05"/><circle cx="585" cy="730" r="2" fill="#111110" fill-opacity="0.05"/><circle cx="649" cy="730" r="2" fill="#111110" fill-opacity="0.05"/><circle cx="713" cy="730" r="2" fill="#111110" fill-opacity="0.05"/><circle cx="777" cy="730" r="2" fill="#111110" fill-opacity="0.05"/><circle cx="841" cy="730" r="2" fill="#111110" fill-opacity="0.05"/><circle cx="905" cy="730" r="2" fill="#111110" fill-opacity="0.05"/><circle cx="969" cy="730" r="2" fill="#111110" fill-opacity="0.05"/><circle cx="1033" cy="730" r="2" fill="#111110" fill-opacity="0.05"/><circle cx="1097" cy="730" r="2" fill="#111110" fill-opacity="0.05"/><circle cx="1161" cy="730" r="2" fill="#111110" fill-opacity="0.05"/><path d="M 423 324 A 238 238 0 0 1 898 324" fill="none" stroke="#0891b2" stroke-width="3" stroke-opacity="0.7" transform="rotate(243 660 324)"/><circle cx="660" cy="324" r="119" fill="none" stroke="#111110" stroke-width="1.5" stroke-opacity="0.3"/><circle cx="898" cy="324" r="8" fill="#0891b2" transform="rotate(243 660 324)"/></svg>