<svg xmlns="http://www.w3.org/2000/svg" viewBox="0 0 1200 660" width="1200" height="660" role="img" font-family="AtoZ, Pretendard, sans-serif"><defs><filter id="soft" x="-40%" y="-40%" width="180%" height="200%"><feDropShadow dx="0" dy="8" stdDeviation="12" flood-color="#2a2118" flood-opacity="0.10"/></filter><marker id="ai" markerWidth="13" markerHeight="13" refX="8.5" refY="6" orient="auto"><path d="M2.5 2.5 L9.5 6 L2.5 9.5" fill="none" stroke="#241f18" stroke-width="2.2" stroke-linecap="round" stroke-linejoin="round"/></marker><marker id="aa" markerWidth="13" markerHeight="13" refX="8.5" refY="6" orient="auto"><path d="M2.5 2.5 L9.5 6 L2.5 9.5" fill="none" stroke="#b8543a" stroke-width="2.2" stroke-linecap="round" stroke-linejoin="round"/></marker><pattern id="dots" width="24" height="24" patternUnits="userSpaceOnUse"><circle cx="2" cy="2" r="1.2" fill="#241f18" fill-opacity="0.04"/></pattern></defs><rect width="1200" height="660" fill="#fbfaf7"/><rect width="1200" height="660" fill="url(#dots)"/><rect x="80" y="62" width="30" height="3" rx="1.5" fill="#b8543a"/><text x="122" y="70" font-size="15" font-weight="700" letter-spacing="2" fill="#b8543a">FLOW · 흐름</text><text x="80" y="118" font-size="23" font-weight="800" fill="#241f18" letter-spacing="-0.5">변경에 메모를 붙여 저장하면, 언제든 되돌아갈 수 있어요.</text><text x="80" y="150" font-size="18" font-weight="500" fill="#8d8579">이름 붙인 스냅샷이라 나중에 찾아 돌아갈 수 있어요.</text><g filter="url(#soft)"><rect x="95" y="287" width="210" height="150" rx="20" fill="#ffffff" stroke="#241f18" stroke-width="2.5"/></g><g stroke="#241f18" stroke-width="2.2" fill="none" stroke-linecap="round" stroke-linejoin="round" transform="translate(200 332)"><path d="M-6 -12 L-18 0 L-6 12"/><path d="M6 -12 L18 0 L6 12"/></g><text x="200" y="376" text-anchor="middle" font-size="24" font-weight="800" fill="#241f18">작업 파일</text><text x="200" y="400" text-anchor="middle" font-size="15" font-weight="500" fill="#a8a194">변경 사항</text><g filter="url(#soft)"><rect x="495" y="274" width="210" height="176" rx="20" fill="#fcf1ec" stroke="#b8543a" stroke-width="3"/></g><g stroke="#b8543a" stroke-width="2.2" fill="none" stroke-linecap="round" stroke-linejoin="round" transform="translate(600 332)"><circle cx="0" cy="0" r="15"/><path d="M-7 0 L-1 6 L8 -6"/></g><text x="600" y="376" text-anchor="middle" font-size="24" font-weight="800" fill="#b8543a">커밋</text><text x="600" y="400" text-anchor="middle" font-size="15" font-weight="500" fill="#9a5640">스냅샷·메모</text><g filter="url(#soft)"><rect x="895" y="287" width="210" height="150" rx="20" fill="#ffffff" stroke="#241f18" stroke-width="2.5"/></g><g stroke="#241f18" stroke-width="2.2" fill="none" stroke-linecap="round" stroke-linejoin="round" transform="translate(1000 332)"><circle cx="0" cy="0" r="16"/><path d="M0 -8 V0 L7 6"/></g><text x="1000" y="376" text-anchor="middle" font-size="24" font-weight="800" fill="#241f18">히스토리</text><text x="1000" y="400" text-anchor="middle" font-size="15" font-weight="500" fill="#a8a194">작업 타임라인</text><line x1="313" y1="362" x2="487" y2="362" stroke="#241f18" stroke-width="2.6" marker-end="url(#ai)"/><g transform="translate(354 330)"><circle r="11" fill="#241f18"/><text y="5" text-anchor="middle" font-size="14" font-weight="700" fill="#fff">1</text><text x="20" y="5" font-size="17" font-weight="600" fill="#241f18">저장·메모 작성</text></g><line x1="713" y1="362" x2="887" y2="362" stroke="#241f18" stroke-width="2.6" marker-end="url(#ai)"/><g transform="translate(767.5 330)"><circle r="11" fill="#241f18"/><text y="5" text-anchor="middle" font-size="14" font-weight="700" fill="#fff">2</text><text x="20" y="5" font-size="17" font-weight="600" fill="#241f18">기록 누적</text></g><path d="M1000 450 V540 H200 V450" fill="none" stroke="#b8543a" stroke-width="2.6" marker-end="url(#aa)"/><g transform="translate(600 540)"><rect x="-140" y="-19" width="280" height="38" rx="19" fill="#fcf1ec" stroke="#eccabd" stroke-width="1.5"/><circle cx="-116" r="11" fill="#b8543a"/><text x="-116" y="5" text-anchor="middle" font-size="14" font-weight="700" fill="#fff">3</text><text x="12" y="5" text-anchor="middle" font-size="16" font-weight="600" fill="#9a5640">되돌리기 · 이전 커밋으로</text></g></svg>