<svg xmlns="http://www.w3.org/2000/svg" viewBox="0 0 1200 660" width="1200" height="660" role="img" font-family="Noto Sans JP, sans-serif"><defs><filter id="soft" x="-40%" y="-40%" width="180%" height="200%"><feDropShadow dx="0" dy="8" stdDeviation="12" flood-color="#2a2118" flood-opacity="0.10"/></filter><marker id="ai" markerWidth="13" markerHeight="13" refX="8.5" refY="6" orient="auto"><path d="M2.5 2.5 L9.5 6 L2.5 9.5" fill="none" stroke="#241f18" stroke-width="2.2" stroke-linecap="round" stroke-linejoin="round"/></marker><marker id="aa" markerWidth="13" markerHeight="13" refX="8.5" refY="6" orient="auto"><path d="M2.5 2.5 L9.5 6 L2.5 9.5" fill="none" stroke="#b8543a" stroke-width="2.2" stroke-linecap="round" stroke-linejoin="round"/></marker><pattern id="dots" width="24" height="24" patternUnits="userSpaceOnUse"><circle cx="2" cy="2" r="1.2" fill="#241f18" fill-opacity="0.04"/></pattern></defs><rect width="1200" height="660" fill="#fbfaf7"/><rect width="1200" height="660" fill="url(#dots)"/><rect x="80" y="62" width="30" height="3" rx="1.5" fill="#b8543a"/><text x="122" y="70" font-size="15" font-weight="700" letter-spacing="2" fill="#b8543a">FLOW · フロー</text><text x="80" y="118" font-size="27" font-weight="800" fill="#241f18" letter-spacing="-0.5">共通ルールで誰もがつながれるAPIの約束です</text><text x="80" y="150" font-size="18" font-weight="500" fill="#8d8579">アドレスと動詞の組み合わせで、予測可能に動きます</text><g filter="url(#soft)"><rect x="95" y="287" width="210" height="150" rx="20" fill="#ffffff" stroke="#241f18" stroke-width="2.5"/></g><g stroke="#241f18" stroke-width="2.2" fill="none" stroke-linecap="round" stroke-linejoin="round" transform="translate(200 332)"><rect x="-13" y="-20" width="26" height="40" rx="6"/><line x1="-13" y1="9" x2="13" y2="9"/><circle cx="0" cy="14.5" r="1.6" fill="#241f18" stroke="none"/></g><text x="200" y="376" text-anchor="middle" font-size="20" font-weight="800" fill="#241f18">アプリのリクエスト</text><text x="200" y="400" text-anchor="middle" font-size="15" font-weight="500" fill="#a8a194">アドレス+動詞の組み合わせ</text><g filter="url(#soft)"><rect x="495" y="274" width="210" height="176" rx="20" fill="#fcf1ec" stroke="#b8543a" stroke-width="3"/></g><g stroke="#b8543a" stroke-width="2.2" fill="none" stroke-linecap="round" stroke-linejoin="round" transform="translate(600 332)"><path d="M-4 -8 a8 8 0 0 1 11 0 l5 5 a8 8 0 0 1 -11 11"/><path d="M4 8 a8 8 0 0 1 -11 0 l-5 -5 a8 8 0 0 1 11 -11"/></g><text x="600" y="376" text-anchor="middle" font-size="20" font-weight="800" fill="#b8543a">REST API</text><text x="600" y="400" text-anchor="middle" font-size="15" font-weight="500" fill="#9a5640">共通ルールブック</text><g filter="url(#soft)"><rect x="895" y="287" width="210" height="150" rx="20" fill="#ffffff" stroke="#241f18" stroke-width="2.5"/></g><g stroke="#241f18" stroke-width="2.2" fill="none" stroke-linecap="round" stroke-linejoin="round" transform="translate(1000 332)"><rect x="-20" y="-16" width="40" height="15" rx="3"/><rect x="-20" y="3" width="40" height="15" rx="3"/><circle cx="-12" cy="-8.5" r="1.7" fill="#241f18" stroke="none"/><circle cx="-12" cy="10.5" r="1.7" fill="#241f18" stroke="none"/></g><text x="1000" y="376" text-anchor="middle" font-size="24" font-weight="800" fill="#241f18">サーバー処理</text><text x="1000" y="400" text-anchor="middle" font-size="15" font-weight="500" fill="#a8a194">データを読み書きします</text><line x1="313" y1="362" x2="487" y2="362" stroke="#241f18" stroke-width="2.6" marker-end="url(#ai)"/><g transform="translate(349.5 330)"><circle r="11" fill="#241f18"/><text y="5" text-anchor="middle" font-size="14" font-weight="700" fill="#fff">1</text><text x="20" y="5" font-size="17" font-weight="600" fill="#241f18">ルールに沿って伝達</text></g><line x1="713" y1="362" x2="887" y2="362" stroke="#241f18" stroke-width="2.6" marker-end="url(#ai)"/><g transform="translate(767.5 330)"><circle r="11" fill="#241f18"/><text y="5" text-anchor="middle" font-size="14" font-weight="700" fill="#fff">2</text><text x="20" y="5" font-size="17" font-weight="600" fill="#241f18">応答を送信</text></g><path d="M1000 450 V540 H200 V450" fill="none" stroke="#b8543a" stroke-width="2.6" marker-end="url(#aa)"/><g transform="translate(600 540)"><rect x="-117.5" y="-19" width="235" height="38" rx="19" fill="#fcf1ec" stroke="#eccabd" stroke-width="1.5"/><circle cx="-93.5" r="11" fill="#b8543a"/><text x="-93.5" y="5" text-anchor="middle" font-size="14" font-weight="700" fill="#fff">3</text><text x="12" y="5" text-anchor="middle" font-size="16" font-weight="600" fill="#9a5640">応答がアプリに返ります</text></g></svg>