<svg xmlns="http://www.w3.org/2000/svg" viewBox="0 0 1200 660" width="1200" height="660" role="img" font-family="Noto Sans JP, sans-serif"><defs><filter id="soft" x="-40%" y="-40%" width="180%" height="200%"><feDropShadow dx="0" dy="8" stdDeviation="12" flood-color="#2a2118" flood-opacity="0.10"/></filter><marker id="ai" markerWidth="13" markerHeight="13" refX="8.5" refY="6" orient="auto"><path d="M2.5 2.5 L9.5 6 L2.5 9.5" fill="none" stroke="#241f18" stroke-width="2.2" stroke-linecap="round" stroke-linejoin="round"/></marker><marker id="aa" markerWidth="13" markerHeight="13" refX="8.5" refY="6" orient="auto"><path d="M2.5 2.5 L9.5 6 L2.5 9.5" fill="none" stroke="#b8543a" stroke-width="2.2" stroke-linecap="round" stroke-linejoin="round"/></marker><pattern id="dots" width="24" height="24" patternUnits="userSpaceOnUse"><circle cx="2" cy="2" r="1.2" fill="#241f18" fill-opacity="0.04"/></pattern></defs><rect width="1200" height="660" fill="#fbfaf7"/><rect width="1200" height="660" fill="url(#dots)"/><rect x="80" y="62" width="30" height="3" rx="1.5" fill="#b8543a"/><text x="122" y="70" font-size="15" font-weight="700" letter-spacing="2" fill="#b8543a">FLOW · フロー</text><text x="80" y="118" font-size="27" font-weight="800" fill="#241f18" letter-spacing="-0.5">繰り返す指示をショートカットで実行します</text><text x="80" y="150" font-size="18" font-weight="500" fill="#8d8579">ファイル名がそのままコマンドになり、スラッシュひとつでルーティンが動きます</text><g filter="url(#soft)"><rect x="95" y="287" width="210" height="150" rx="20" fill="#ffffff" stroke="#241f18" stroke-width="2.5"/></g><g stroke="#241f18" stroke-width="2.2" fill="none" stroke-linecap="round" stroke-linejoin="round" transform="translate(200 332)"><path d="M-12 -20 H6 l8 8 V20 H-12 Z"/><path d="M6 -20 V-12 H14"/><line x1="-6" y1="-2" x2="8" y2="-2"/><line x1="-6" y1="7" x2="8" y2="7"/></g><text x="200" y="376" text-anchor="middle" font-size="20" font-weight="800" fill="#241f18">長いプロンプト</text><text x="200" y="400" text-anchor="middle" font-size="15" font-weight="500" fill="#a8a194">繰り返す指示</text><g filter="url(#soft)"><rect x="495" y="287" width="210" height="150" rx="20" fill="#ffffff" stroke="#241f18" stroke-width="2.5"/></g><g stroke="#241f18" stroke-width="2.2" fill="none" stroke-linecap="round" stroke-linejoin="round" transform="translate(600 332)"><path d="M-18 -10 H-4 l4 6 H18 V14 H-18 Z"/></g><text x="600" y="376" text-anchor="middle" font-size="20" font-weight="800" fill="#241f18">コマンドファイル</text><text x="600" y="400" text-anchor="middle" font-size="15" font-weight="500" fill="#a8a194">テキストファイルとして保存</text><g filter="url(#soft)"><rect x="895" y="274" width="210" height="176" rx="20" fill="#fcf1ec" stroke="#b8543a" stroke-width="3"/></g><g stroke="#b8543a" stroke-width="2.2" fill="none" stroke-linecap="round" stroke-linejoin="round" transform="translate(1000 332)"><rect x="-18" y="-14" width="36" height="28" rx="4"/><path d="M-10 -4 L-3 2 L-10 8"/><line x1="0" y1="8" x2="9" y2="8"/></g><text x="1000" y="376" text-anchor="middle" font-size="20" font-weight="800" fill="#b8543a">スラッシュコマンド</text><text x="1000" y="400" text-anchor="middle" font-size="15" font-weight="500" fill="#9a5640">名前ひとつで呼び出す</text><line x1="313" y1="362" x2="487" y2="362" stroke="#241f18" stroke-width="2.6" marker-end="url(#ai)"/><g transform="translate(367.5 330)"><circle r="11" fill="#241f18"/><text y="5" text-anchor="middle" font-size="14" font-weight="700" fill="#fff">1</text><text x="20" y="5" font-size="17" font-weight="600" fill="#241f18">保存される</text></g><line x1="713" y1="362" x2="887" y2="362" stroke="#241f18" stroke-width="2.6" marker-end="url(#ai)"/><g transform="translate(767.5 330)"><circle r="11" fill="#241f18"/><text y="5" text-anchor="middle" font-size="14" font-weight="700" fill="#fff">2</text><text x="20" y="5" font-size="17" font-weight="600" fill="#241f18">名前がつく</text></g></svg>